<mxfile modified="2024-03-04T17:04:00.361Z" host="app.diagrams.net" agent="Mozilla/5.0 (Windows NT 10.0; Win64; x64) AppleWebKit/537.36 (KHTML, like Gecko) Chrome/122.0.0.0 Safari/537.36 Edg/122.0.0.0" etag="d4-xee4fwmFYMXTxnZJa" version="24.0.1" type="github">
  <diagram id="WI9T0HZ2pTsCkuznbFz-" name="Page-1">
    <mxGraphModel dx="1760" dy="1012" grid="1" gridSize="10" guides="1" tooltips="1" connect="1" arrows="1" fold="1" page="1" pageScale="1" pageWidth="827" pageHeight="1169" math="0" shadow="0">
      <root>
        <mxCell id="0" />
        <mxCell id="1" parent="0" />
        <mxCell id="28heIlWIprtDJxRmpmQK-6" value="" style="rounded=1;whiteSpace=wrap;html=1;fillColor=#f5f5f5;strokeColor=none;fontColor=#333333;labelBackgroundColor=none;" parent="1" vertex="1">
          <mxGeometry x="652.5" y="270" width="370" height="520" as="geometry" />
        </mxCell>
        <mxCell id="ygO9R2tAyCTKiadrEur1-9" style="edgeStyle=orthogonalEdgeStyle;rounded=0;orthogonalLoop=1;jettySize=auto;html=1;entryX=0.5;entryY=1;entryDx=0;entryDy=0;" edge="1" parent="1" source="28heIlWIprtDJxRmpmQK-2" target="ygO9R2tAyCTKiadrEur1-3">
          <mxGeometry relative="1" as="geometry" />
        </mxCell>
        <mxCell id="28heIlWIprtDJxRmpmQK-2" value="" style="rounded=1;whiteSpace=wrap;html=1;fillColor=#f5f5f5;strokeColor=none;fontColor=#333333;labelBackgroundColor=none;" parent="1" vertex="1">
          <mxGeometry x="380" y="790" width="160" height="130" as="geometry" />
        </mxCell>
        <mxCell id="28heIlWIprtDJxRmpmQK-13" style="edgeStyle=elbowEdgeStyle;rounded=0;orthogonalLoop=1;jettySize=auto;elbow=vertical;html=1;strokeColor=#808080;entryX=0;entryY=0.5;entryDx=0;entryDy=0;startArrow=classic;startFill=1;exitX=1;exitY=0.5;exitDx=0;exitDy=0;dashed=1;" parent="1" source="ygO9R2tAyCTKiadrEur1-4" target="ygO9R2tAyCTKiadrEur1-1" edge="1">
          <mxGeometry relative="1" as="geometry">
            <mxPoint x="816.5" y="727.5026086956523" as="sourcePoint" />
            <mxPoint x="959.6000000000001" y="727.6199999999999" as="targetPoint" />
          </mxGeometry>
        </mxCell>
        <mxCell id="ygO9R2tAyCTKiadrEur1-10" value="Send Query &amp;amp;&lt;br&gt;&amp;nbsp;Receive responses" style="edgeLabel;html=1;align=center;verticalAlign=middle;resizable=0;points=[];" vertex="1" connectable="0" parent="28heIlWIprtDJxRmpmQK-13">
          <mxGeometry x="0.2205" y="-3" relative="1" as="geometry">
            <mxPoint x="-17" y="-5" as="offset" />
          </mxGeometry>
        </mxCell>
        <mxCell id="ygO9R2tAyCTKiadrEur1-1" value="" style="shape=image;verticalLabelPosition=bottom;labelBackgroundColor=#ffffff;verticalAlign=top;aspect=fixed;imageAspect=0;image=data:image/svg+xml,PHN2ZyB4bWxuczpjYz0iaHR0cDovL2NyZWF0aXZlY29tbW9ucy5vcmcvbnMjIiB4bWxuczpkYz0iaHR0cDovL3B1cmwub3JnL2RjL2VsZW1lbnRzLzEuMS8iIHhtbG5zOmlua3NjYXBlPSJodHRwOi8vd3d3Lmlua3NjYXBlLm9yZy9uYW1lc3BhY2VzL2lua3NjYXBlIiB4bWxuczpyZGY9Imh0dHA6Ly93d3cudzMub3JnLzE5OTkvMDIvMjItcmRmLXN5bnRheC1ucyMiIHhtbG5zOnNvZGlwb2RpPSJodHRwOi8vc29kaXBvZGkuc291cmNlZm9yZ2UubmV0L0RURC9zb2RpcG9kaS0wLmR0ZCIgeG1sbnM6c3ZnPSJodHRwOi8vd3d3LnczLm9yZy8yMDAwL3N2ZyIgeG1sbnM9Imh0dHA6Ly93d3cudzMub3JnLzIwMDAvc3ZnIiB4bWxuczp4bGluaz0iaHR0cDovL3d3dy53My5vcmcvMTk5OS94bGluayIgdmVyc2lvbj0iMS4xIiBpZD0ic3ZnMTAxMjg5IiBpbmtzY2FwZTp2ZXJzaW9uPSIwLjkyLjMgKDI0MDU1NDYsIDIwMTgtMDMtMTEpIiBzb2RpcG9kaTpkb2NuYW1lPSJtb25nb2RiLnN2ZyIgeD0iMHB4IiB5PSIwcHgiIHZpZXdCb3g9IjAgMCAxMDEuMjggNjQuNDYiIHN0eWxlPSJlbmFibGUtYmFja2dyb3VuZDpuZXcgMCAwIDEwMS4yOCA2NC40NjsiIHhtbDpzcGFjZT0icHJlc2VydmUiPiYjeGE7PHNvZGlwb2RpOm5hbWVkdmlldyBib3JkZXJjb2xvcj0iIzY2NjY2NiIgYm9yZGVyb3BhY2l0eT0iMSIgZml0LW1hcmdpbi1ib3R0b209IjAiIGZpdC1tYXJnaW4tbGVmdD0iMCIgZml0LW1hcmdpbi1yaWdodD0iMCIgZml0LW1hcmdpbi10b3A9IjAiIGdyaWR0b2xlcmFuY2U9IjEwIiBndWlkZXRvbGVyYW5jZT0iMTAiIGlkPSJuYW1lZHZpZXcxMDEyOTEiIGlua3NjYXBlOmN1cnJlbnQtbGF5ZXI9InN2ZzEwMTI4OSIgaW5rc2NhcGU6Y3g9IjY3LjUyMzY1MyIgaW5rc2NhcGU6Y3k9IjQzLjE3NTI0NCIgaW5rc2NhcGU6cGFnZW9wYWNpdHk9IjAiIGlua3NjYXBlOnBhZ2VzaGFkb3c9IjIiIGlua3NjYXBlOndpbmRvdy1oZWlnaHQ9IjEwMTciIGlua3NjYXBlOndpbmRvdy1tYXhpbWl6ZWQ9IjEiIGlua3NjYXBlOndpbmRvdy13aWR0aD0iMTkyMCIgaW5rc2NhcGU6d2luZG93LXg9Ii04IiBpbmtzY2FwZTp3aW5kb3cteT0iLTgiIGlua3NjYXBlOnpvb209IjkuODQ1NDgxNCIgb2JqZWN0dG9sZXJhbmNlPSIxMCIgcGFnZWNvbG9yPSIjZmZmZmZmIiBzaG93Z3JpZD0iZmFsc2UiPiYjeGE7CTwvc29kaXBvZGk6bmFtZWR2aWV3PiYjeGE7PGcgaWQ9ImcxMDEyODciIHRyYW5zZm9ybT0idHJhbnNsYXRlKC0wLjY0NTM3OTIxLC0wLjk0MzY1ODU5KSI+JiN4YTsJPHRpdGxlIGlkPSJ0aXRsZTEwMTIxNyI+UGFnZS0xPC90aXRsZT4mI3hhOwk8ZyBpZD0iZ3JvdXAzOTM5LTEiIHRyYW5zZm9ybT0idHJhbnNsYXRlKDAuNTc1NTk0LC0wLjU4MDQ2NikiPiYjeGE7CQk8dGl0bGUgaWQ9InRpdGxlMTAxMjE5Ij5Nb25nb0RCPC90aXRsZT4mI3hhOwkJPGcgaWQ9Imdyb3VwMzk0MC0yIj4mI3hhOwkJCTx0aXRsZSBpZD0idGl0bGUxMDEyMjEiPkxheWVyIDE8L3RpdGxlPiYjeGE7CQkJPGcgaWQ9Imdyb3VwMzk0MS0zIj4mI3hhOwkJCQk8dGl0bGUgaWQ9InRpdGxlMTAxMjIzIj5zdmdfMTwvdGl0bGU+JiN4YTsJCQkJPGcgaWQ9Imdyb3VwMzk0Mi00IiB0cmFuc2Zvcm09InRyYW5zbGF0ZSgzOS4zOTksLTIwLjUxMTUpIj4mI3hhOwkJCQkJPHRpdGxlIGlkPSJ0aXRsZTEwMTIyNSI+Zzg2MjwvdGl0bGU+JiN4YTsJCQkJCTxnIGlkPSJzaGFwZTM5NDMtNSIgdHJhbnNmb3JtPSJ0cmFuc2xhdGUoOS43MDgzNywtNS44MDEwNykiPiYjeGE7CQkJCQkJPHRpdGxlIGlkPSJ0aXRsZTEwMTIyNyI+cGF0aDI8L3RpdGxlPiYjeGE7CQkJCQkJPHBhdGggaWQ9InBhdGgxMDEyMjkiIGlua3NjYXBlOmNvbm5lY3Rvci1jdXJ2YXR1cmU9IjAiIHN0eWxlPSJmaWxsOiM1OTk2MzY7IiBkPSJNMC4xNCwyNy45NmMwLjM0LDAuNjIsMC43OSwxLjYsMS4xOCwyLjIgICAgICAgIGMwLjI2LDAuNDEsMC41NSwwLjc3LDAuODksMS4xYzAuOTgsMC45OSwxLjkxLDIuMDIsMi43NSwzLjEyYzEuOTksMi42MSwzLjMzLDUuNTEsNC4yOSw4LjY1YzAuNTgsMS45MiwwLjg5LDMuODksMC45MSw1Ljg4ICAgICAgICBjMC4xLDUuOTQtMS45NCwxMS4wNS02LjA2LDE1LjI5Yy0wLjY3LDAuNjctMS4zOSwxLjI5LTIuMTYsMS44NWMtMC40MSwwLTAuNi0wLjMyLTAuNzctMC42Yy0wLjMxLTAuNTMtMC41LTEuMTMtMC41OS0xLjczICAgICAgICBjLTAuMTUtMC43Mi0wLjI0LTEuNDQtMC4yLTIuMThjMC0wLjEyLDAtMC4yMiwwLTAuMzRDMC4zNiw2MS4xMywwLDI4LjEyLDAuMTQsMjcuOTZ6Ii8+JiN4YTsJCQkJCTwvZz4mI3hhOwkJCQkJPGcgaWQ9InNoYXBlMzk0NC03IiB0cmFuc2Zvcm09InRyYW5zbGF0ZSgwLC01LjM5MzU3KSI+JiN4YTsJCQkJCQk8dGl0bGUgaWQ9InRpdGxlMTAxMjMyIj5wYXRoODwvdGl0bGU+JiN4YTsJCQkJCQk8cGF0aCBpZD0icGF0aDEwMTIzNCIgaW5rc2NhcGU6Y29ubmVjdG9yLWN1cnZhdHVyZT0iMCIgc3R5bGU9ImZpbGw6IzZDQUM0ODsiIGQ9Ik05Ljg1LDI3LjQ4Yy0wLjA1LTAuMS0wLjA5LTAuMDMtMC4xNCwwLjAyICAgICAgICBjMC4wMiwwLjQ4LTAuMTUsMC45MS0wLjQxLDEuMzJjLTAuMjksMC40MS0wLjY3LDAuNzItMS4wNSwxLjA1Yy0yLjE0LDEuODUtMy44Miw0LjA4LTUuMTYsNi41NyAgICAgICAgYy0xLjc3LDMuMzYtMi43MSw2Ljk1LTIuOTcsMTAuNzRDMCw0OC41NSwwLjU1LDUzLjM2LDAuOTgsNTQuNzZjMS4xOCwzLjY5LDMuMjksNi43OCw2LjAyLDkuNDYgICAgICAgIGMwLjY3LDAuNjUsMS4zOSwxLjI1LDIuMTMsMS44M2MwLjIyLDAsMC4yNC0wLjIsMC4yOS0wLjM0YzAuMS0wLjMxLDAuMTctMC42MiwwLjIyLTAuOTNjMC4yMS0xLjIsMC4zMy0yLjQsMC40OC0zLjYgICAgICAgIEMxMC4xMiw2MS4wNCw5LjkyLDI3LjYsOS44NSwyNy40OHoiLz4mI3hhOwkJCQkJPC9nPiYjeGE7CQkJCQk8ZyBpZD0ic2hhcGUzOTQ1LTkiIHRyYW5zZm9ybT0idHJhbnNsYXRlKDkuMTMzMDcpIj4mI3hhOwkJCQkJCTx0aXRsZSBpZD0idGl0bGUxMDEyMzciPnBhdGgxMDwvdGl0bGU+JiN4YTsJCQkJCQk8cGF0aCBpZD0icGF0aDEwMTIzOSIgaW5rc2NhcGU6Y29ubmVjdG9yLWN1cnZhdHVyZT0iMCIgc3R5bGU9ImZpbGw6I0MyQkZCRjsiIGQ9Ik0xLjg5LDYxLjcxYzAuMDUtMC41NSwwLjMyLTEuMDEsMC42LTEuNDcgICAgICAgIGMtMC4yOC0wLjEyLTAuNS0wLjM2LTAuNjctMC42MmMtMC4xNC0wLjI0LTAuMjYtMC41My0wLjM2LTAuNzljLTAuMzMtMS4wMS0wLjQxLTIuMDYtMC41LTMuMDlsMCwwYzAtMC4xLDAtMC4yMiwwLTAuMzFsMCwwICAgICAgICBjMC0wLjEsMC0wLjIyLDAtMC4zMmMtMC4xMiwwLjEtMC4xNCwwLjkyLTAuMTQsMS4wNGMtMC4wOCwxLjEtMC4yMiwyLjE4LTAuNDQsMy4yM0MwLjMxLDU5LjgxLDAuMjYsNjAuMjQsMCw2MC42MyAgICAgICAgYzAsMC4wNSwwLDAuMDksMC4wMiwwLjE3YzAuNDQsMS4yNywwLjU2LDIuNTYsMC42MywzLjg4YzAsMC4xNywwLDAuMzEsMCwwLjQ4YzAsMC41Ny0wLjAzLDAuNDUsMC40NSwwLjY1ICAgICAgICBjMC4xOSwwLjA3LDAuNDEsMC4wOSwwLjYsMC4yNGMwLjE1LDAsMC4xNy0wLjEyLDAuMTctMC4yMkMxLjg1LDY1LjU3LDEuOCw2NS4zLDEuOCw2NS4wNGMwLTAuNzQtMC4wMy0xLjQ2LDAtMi4yMSAgICAgICAgQzEuNzcsNjIuNDUsMS44NSw2Mi4wNywxLjg5LDYxLjcxeiIvPiYjeGE7CQkJCQk8L2c+JiN4YTsJCQkJPC9nPiYjeGE7CQkJCTxnIGlkPSJncm91cDM5NDYtMTEiPiYjeGE7CQkJCQk8dGl0bGUgaWQ9InRpdGxlMTAxMjQzIj5nODgwPC90aXRsZT4mI3hhOwkJCQkJPGcgaWQ9InNoYXBlMzk0Ny0xMiIgdHJhbnNmb3JtPSJ0cmFuc2xhdGUoMCwtNi4xMTU1NikiPiYjeGE7CQkJCQkJPHRpdGxlIGlkPSJ0aXRsZTEwMTI0NSI+cGF0aDQ8L3RpdGxlPiYjeGE7CQkJCQkJPHBhdGggaWQ9InBhdGgxMDEyNDciIGlua3NjYXBlOmNvbm5lY3Rvci1jdXJ2YXR1cmU9IjAiIHN0eWxlPSJmaWxsOiM0NzQ3NEE7IiBkPSJNMy44NSw2MS40N2MwLDAuODgsMCwxLjc2LDAsMi42MiAgICAgICAgYzAsMC4xMSwwLDAuMjEsMC4wMiwwLjMxYzAuMDMsMC4zMiwwLjIyLDAuNTEsMC41MiwwLjU5YzAuMjYsMC4wNywwLjUzLDAuMTIsMC43OSwwLjE2YzAuMTYsMC4wMSwwLjIxLDAuMDgsMC4yMywwLjI0ICAgICAgICBjMC4wMSwwLjU5LTAuMDQsMC42Ni0wLjYxLDAuNjJjLTEuMzMtMC4wNy0yLjY2LTAuMDktMy45OSwwYy0wLjA1LDAtMC4xLDAtMC4xNCwwYy0wLjQxLDAuMDItMC40NS0wLjAyLTAuNDUtMC40MyAgICAgICAgYzAtMC4wNywwLjAyLTAuMTYsMC4wMi0wLjIzYzAtMC4xMywwLjA5LTAuMTksMC4yMS0wLjE5YzAuMjgtMC4wMywwLjUzLTAuMSwwLjc5LTAuMTVjMC4zNy0wLjA5LDAuNTctMC4zMSwwLjYxLTAuNjcgICAgICAgIGMwLjA1LTAuNCwwLjA1LTAuODIsMC4wNS0xLjIxYzAuMDUtMS41NCwwLjAzLTMuMSwwLjAyLTQuNjNjMC0wLjMtMC4xMi0wLjUyLTAuMzgtMC42NmMtMC4zMS0wLjE3LTAuNjQtMC4zMS0wLjk5LTAuNDIgICAgICAgIGMtMC4xLTAuMDMtMC4yLTAuMDUtMC4yOS0wLjFDMC4wMiw1Ny4yLDAsNTYuOTgsMC4yNCw1Ni44NGMwLjA5LTAuMDUsMC4xOS0wLjA5LDAuMy0wLjExYzEuMDUtMC4xNSwyLjA3LTAuNDEsMy4wNy0wLjc3ICAgICAgICBjMC4yMS0wLjA3LDAuMjYtMC4wNiwwLjI4LDAuMTVjMC4wMSwwLjE0LDAsMC4yOC0wLjAyLDAuNGMtMC4wMywwLjIyLTAuMDMsMC40NS0wLjAzLDAuNjZjMCwwLjA4LDAuMDEsMC4xNywwLjEsMC4yMiAgICAgICAgYzAuMDksMC4wNSwwLjE3LDAsMC4yNC0wLjA1YzAuMzYtMC4yOCwwLjczLTAuNTQsMS4xMi0wLjc2YzAuNTctMC4zMSwxLjE4LTAuNTksMS44My0wLjY4YzAuOC0wLjEsMS40OSwwLjExLDIuMSwwLjYzICAgICAgICBjMC4yNSwwLjIyLDAuNDYsMC40OCwwLjY1LDAuNzZjMC4xNywwLjI0LDAuMTksMC4yNiwwLjQyLDAuMDhjMC42NS0wLjQ4LDEuMzQtMC45MSwyLjA5LTEuMjJjMC43Ny0wLjMzLDEuNTctMC4zOCwyLjM2LTAuMTEgICAgICAgIGMwLjgyLDAuMywxLjM3LDAuODcsMS43LDEuNjRjMC4yNywwLjYzLDAuMzksMS4yOCwwLjM5LDEuOTRjMCwxLjAyLDAsMi4wNCwwLDMuMDdjMCwwLjUyLDAsMS4wNCwwLDEuNTYgICAgICAgIGMwLDAuMzEsMC4xNCwwLjUyLDAuNDQsMC42NmMwLjMyLDAuMTMsMC42OSwwLjE5LDEuMDMsMC4yNWMwLjIzLDAuMDYsMC4yMywwLjA2LDAuMjMsMC4yOGMtMC4wNCwwLjU3LTAuMDksMC42MS0wLjY0LDAuNTcgICAgICAgIGMtMS4zOC0wLjA5LTIuNzgtMC4wNy00LjE3LDBjLTAuMjcsMC4wMi0wLjI3LDAuMDItMC4yOS0wLjI2YzAtMC4wMywwLTAuMDUsMC0wLjA4Yy0wLjAyLTAuNDctMC4wMi0wLjQ3LDAuNDMtMC41NyAgICAgICAgYzAuMTYtMC4wNCwwLjMtMC4wNywwLjQ1LTAuMTNjMC4zNS0wLjEsMC41Mi0wLjMyLDAuNTQtMC42N2MwLjAxLTAuNDMsMC4wMy0wLjg2LDAuMDUtMS4yOWMwLTEuMTMsMC4wMy0yLjI3LTAuMDQtMy4zOSAgICAgICAgYy0wLjAxLTAuMjktMC4wNi0wLjU5LTAuMTktMC44OGMtMC40My0xLjA2LTEuMzgtMS40NC0yLjI5LTEuMzNjLTAuNjksMC4wNy0xLjMsMC4zNC0xLjg3LDAuNzQgICAgICAgIGMtMC4xMiwwLjA5LTAuMjEsMC4xOS0wLjE5LDAuMzZjMC4xNiwxLjExLDAuMDUsMi4yMSwwLjA3LDMuMzJjMC4wMiwwLjc5LDAsMS42MSwwLDIuNGMwLDAuNDMsMC4xNywwLjY0LDAuNTksMC43NCAgICAgICAgYzAuMjYsMC4wNywwLjUyLDAuMTMsMC43OSwwLjE4YzAuMTIsMC4wMSwwLjE5LDAuMDcsMC4xOSwwLjJjMCwwLjA2LDAsMC4xMSwwLDAuMTRjLTAuMDIsMC40OS0wLjA1LDAuNTItMC41MywwLjUgICAgICAgIGMtMS4zOS0wLjA3LTIuNzctMC4wNS00LjEzLDBjLTAuNDcsMC4wMi0wLjUyLTAuMDMtMC40OS0wLjUxYzAuMDItMC4yOCwwLjA2LTAuMywwLjMxLTAuMzVjMC4xOS0wLjAzLDAuMzgtMC4wNywwLjU3LTAuMSAgICAgICAgYzAuNTItMC4xMSwwLjctMC4zLDAuNzMtMC44M2MwLjAyLTAuMzgsMC4wNS0wLjc4LDAuMDUtMS4xNmMwLjAyLTEuMTYsMC4wNS0yLjMyLTAuMDMtMy40N2MtMC4wNC0wLjQzLTAuMTQtMC44NS0wLjM3LTEuMjUgICAgICAgIGMtMC4zNC0wLjY0LTAuODktMC45Ni0xLjYyLTFjLTAuNzQtMC4wNS0xLjQsMC4yMy0yLjAyLDAuNTdjLTAuNDMsMC4yNC0wLjYyLDAuNTUtMC41OSwxLjA2ICAgICAgICBDMy44Nyw1OS44MSwzLjg0LDYwLjY0LDMuODUsNjEuNDdDMy44NCw2MS40NywzLjg1LDYxLjQ3LDMuODUsNjEuNDdDMy44NSw2MS40NywzLjg1LDYxLjQ3LDMuODUsNjEuNDd6Ii8+JiN4YTsJCQkJCTwvZz4mI3hhOwkJCQkJPGcgaWQ9Imdyb3VwMzk0OC0xNCIgdHJhbnNmb3JtPSJ0cmFuc2xhdGUoMjAuMzY3OSkiPiYjeGE7CQkJCQkJPHRpdGxlIGlkPSJ0aXRsZTEwMTI1MCI+Zzg3MDwvdGl0bGU+JiN4YTsJCQkJCQk8ZyBpZD0ic2hhcGUzOTQ5LTE1IiB0cmFuc2Zvcm09InRyYW5zbGF0ZSgxMS45NzIsLTUuOTYwMDYpIj4mI3hhOwkJCQkJCQk8dGl0bGUgaWQ9InRpdGxlMTAxMjUyIj5wYXRoNjwvdGl0bGU+JiN4YTsJCQkJCQkJPHBhdGggaWQ9InBhdGgxMDEyNTQiIGlua3NjYXBlOmNvbm5lY3Rvci1jdXJ2YXR1cmU9IjAiIHN0eWxlPSJmaWxsOiM0NzQ3NEE7IiBkPSJNNC4wNiw2MS40MmMwLDAuODEsMCwxLjYyLDAsMi40MyAgICAgICAgIGMwLDAuMTcsMC4wMiwwLjM1LDAuMDMsMC41MmMwLjA0LDAuMjYsMC4xOCwwLjQxLDAuNDIsMC40OGMwLjI5LDAuMDksMC42LDAuMTQsMC45MSwwLjE2YzAuMTgsMC4wMiwwLjIxLDAuMDksMC4yMywwLjIyICAgICAgICAgYzAsMC4wNCwwLDAuMDcsMCwwLjEyYy0wLjAyLDAuNjEtMC4wOSwwLjY4LTAuNjcsMC42NGMtMS4zMi0wLjA4LTIuNjMtMC4wNy0zLjk0LDBjLTAuMTgsMC0wLjM1LDAuMDItMC41MiwwLjAyICAgICAgICAgYy0wLjExLDAtMC4xNC0wLjA1LTAuMTYtMC4xMmMtMC4wNS0wLjI0LTAuMDUtMC40OCwwLTAuNzNjMC4wMi0wLjEsMC4wOS0wLjEzLDAuMTktMC4xNWMwLjI0LTAuMDQsMC40Ny0wLjA5LDAuNzEtMC4xNCAgICAgICAgIGMwLjQzLTAuMSwwLjU5LTAuMjgsMC42MS0wLjcyYzAuMDMtMC40OSwwLjA1LTAuOTcsMC4wNS0xLjQ2YzAtMS40MSwwLTIuODMsMC00LjI1YzAtMC4zMS0wLjEyLTAuNS0wLjQtMC42NCAgICAgICAgIGMtMC4zMS0wLjE3LTAuNjQtMC4yOS0wLjk4LTAuNDFjLTAuMTEtMC4wMy0wLjIxLTAuMDctMC4zLTAuMTJDMC4wMiw1Ny4xMSwwLDU2Ljg5LDAuMjEsNTYuNzJjMC4xLTAuMDksMC4yLTAuMTIsMC4zNC0wLjE0ICAgICAgICAgYzEuMTEtMC4xNywyLjE4LTAuNDIsMy4yMi0wLjgzYzAuMTItMC4wNSwwLjE3LTAuMDIsMC4yMiwwLjA5YzAuMDUsMC4xLDAuMDcsMC4yMiwwLjA1LDAuMzRjLTAuMDEsMC4yOC0wLjAzLDAuNTQtMC4wNSwwLjgxICAgICAgICAgYzAsMC4xMS0wLjA1LDAuMjQsMC4wNCwwLjNjMC4xLDAuMDcsMC4xNy0wLjA5LDAuMjUtMC4xNGMwLjUyLTAuNDIsMS4wOC0wLjgsMS42OC0xLjA3YzAuNTQtMC4yNCwxLjA5LTAuNDIsMS43MS0wLjM4ICAgICAgICAgYzEuMTYsMC4wNywxLjk5LDAuNjUsMi41MiwxLjY3YzAuMjgsMC41NCwwLjQsMS4xMywwLjQ1LDEuNzNjMC4wNCwwLjQyLDAuMDUsMC44NSwwLjA1LDEuMjhjMCwxLjE5LDAuMDIsMi4zNywwLjAyLDMuNTYgICAgICAgICBjMCwwLjA4LDAsMC4xNywwLDAuMjZjMC4wMiwwLjI5LDAuMTIsMC40OCwwLjQyLDAuNThjMC4zMSwwLjExLDAuNiwwLjE4LDAuOTMsMC4yM2MwLjI3LDAuMDMsMC4yOSwwLjA5LDAuMzEsMC4zNCAgICAgICAgIGMwLDAuMDQsMCwwLjA2LDAsMC4wOWMtMC4wNCwwLjU5LTAuMDcsMC42MS0wLjY2LDAuNTdjLTEuMjktMC4wNy0yLjU5LTAuMDctMy44NywwYy0wLjE3LDAuMDItMC4zNCwwLTAuNTIsMC4wMiAgICAgICAgIGMtMC4xLDAtMC4xNy0wLjAyLTAuMTktMC4xMmMtMC4wMy0wLjIzLTAuMDYtMC40NS0wLjAxLTAuNjljMC4wMS0wLjExLDAuMDctMC4xNiwwLjE5LTAuMThjMC4yNi0wLjAzLDAuNTMtMC4wNywwLjc5LTAuMTMgICAgICAgICBjMC4yOC0wLjA3LDAuNDMtMC4yNSwwLjQ3LTAuNTJjMC4wMi0wLjE2LDAuMDMtMC4zMywwLjAzLTAuNDljMC0xLjIxLDAtMi40Mi0wLjAxLTMuNjFjMC0wLjQxLTAuMDItMC44My0wLjExLTEuMjQgICAgICAgICBjLTAuMi0wLjktMC44OC0xLjUtMS43OS0xLjYxYy0wLjgtMC4wOC0xLjUxLDAuMTItMi4xOCwwLjU2Yy0wLjMzLDAuMi0wLjQ3LDAuNS0wLjQ3LDAuODZjMCwwLjYsMCwxLjIxLDAsMS44MyAgICAgICAgIGMwLDAuMjYsMCwwLjUyLDAsMC43OEM0LjA0LDYxLjQyLDQuMDQsNjEuNDIsNC4wNiw2MS40MkM0LjA2LDYxLjQyLDQuMDYsNjEuNDIsNC4wNiw2MS40MnoiLz4mI3hhOwkJCQkJCTwvZz4mI3hhOwkJCQkJCTxnIGlkPSJzaGFwZTM5NTAtMTciIHRyYW5zZm9ybT0idHJhbnNsYXRlKDUwLjgwNzYsLTYuMTE1NTIpIj4mI3hhOwkJCQkJCQk8dGl0bGUgaWQ9InRpdGxlMTAxMjU3Ij5wYXRoMTI8L3RpdGxlPiYjeGE7CQkJCQkJCTxwYXRoIGlkPSJwYXRoMTAxMjU5IiBpbmtzY2FwZTpjb25uZWN0b3ItY3VydmF0dXJlPSIwIiBzdHlsZT0iZmlsbDojQzJCRkJGOyIgZD0iTTE1LjgyLDU2LjY4ICAgICAgICAgYy0wLjE5LTEuMjYtMC42NS0yLjM4LTEuNDYtMy4zN2MtMC43My0wLjg4LTEuNjEtMS41My0yLjY2LTEuOTdjLTEuMDktMC40NS0yLjI1LTAuNTgtMy40Mi0wLjYyICAgICAgICAgYy0wLjQ5LTAuMDItNy4wOSwwLjA5LTcuNTcsMGMtMC4xMi0wLjAyLTAuMjEsMC4wMi0wLjI4LDAuMTJjLTAuMDgsMC4xNC0wLjE3LDAuMjYtMC4yMiwwLjRDMCw1MS43MSwwLDUxLjY3LDAuNSw1MS43NCAgICAgICAgIGMwLjQyLDAuMDcsMC44MSwwLjEsMS4yMSwwLjIzYzAuMzYsMC4xMiwwLjYyLDAuMzIsMC43MSwwLjcyYzAuMDMsMC4xOSwwLjA3LDYuMjcsMC4wNyw5LjExYzAsMC42Ny0wLjAyLDEuMzQtMC4wNywyLjAyICAgICAgICAgYy0wLjAyLDAuMTUtMC4wNCwwLjMxLTAuMDksMC40NWMtMC4wNywwLjItMC4xOSwwLjM4LTAuNCwwLjQ2Yy0wLjIyLDAuMTEtMC40NiwwLjE4LTAuNzIsMC4xOSAgICAgICAgIGMtMC40NywwLjA1LTAuNTQsMC4wNy0wLjY5LDAuNTljLTAuMDIsMC4wNy0wLjA0LDAuMTQtMC4wNSwwLjE5Yy0wLjA0LDAuMjItMC4wMiwwLjI2LDAuMiwwLjI2ICAgICAgICAgYzEuMDQsMC4wMiw0LjMxLDAuMDUsNS4xNywwLjA1YzAuNDgtMC4wMiwxLjI2LDAuMDQsMi4wMi0wLjAzYzAuNDctMC4wNiwwLjkzLTAuMDksMS40LTAuMThjMS41OS0wLjI5LDMuMDEtMC45NSw0LjIyLTIgICAgICAgICBjMC43LTAuNjIsMS4yNC0xLjM1LDEuNjUtMi4xOGMwLjQ5LTAuOTYsMC42OS0yLjAyLDAuNzUtMy4wOUMxNS45Niw1Ny45MywxNS45Myw1Ny4zLDE1LjgyLDU2LjY4TDE1LjgyLDU2LjY4eiBNMTMuMzIsNTkuMTQgICAgICAgICBjLTAuMDcsMS4xLTAuMjksMi4xNy0wLjg2LDMuMTRjLTAuNzMsMS4yNi0xLjc3LDIuMTQtMy4yLDIuNDVjLTAuNjIsMC4xNC0xLjI0LDAuMTktMS44OCwwLjExICAgICAgICAgYy0wLjQ3LTAuMDYtMC45Mi0wLjExLTEuMzUtMC4yNmMtMC43OC0wLjI4LTEuMDUtMC43Ni0xLjA3LTEuNTFjLTAuMDQtMS4wOCwwLTguNy0wLjAyLTEwLjQxYzAtMC42MywwLjI4LTAuNzYsMC43My0wLjc4ICAgICAgICAgYzAuNjctMC4wNSwxLjM2LTAuMDQsMi4wMywwLjAzYzAuNzMsMC4wNywxLjQyLDAuMjUsMi4xLDAuNTJjMC41LDAuMjEsMC45NiwwLjUsMS4zNiwwLjg1YzAuOTMsMC43OSwxLjU1LDEuOCwxLjg4LDIuOTcgICAgICAgICBDMTMuMzIsNTcuMiwxMy4zNyw1OC4xNywxMy4zMiw1OS4xNHoiLz4mI3hhOwkJCQkJCTwvZz4mI3hhOwkJCQkJCTxnIGlkPSJzaGFwZTM5NTEtMTkiIHRyYW5zZm9ybT0idHJhbnNsYXRlKDY3Ljg5MzIsLTYuMDExOSkiPiYjeGE7CQkJCQkJCTx0aXRsZSBpZD0idGl0bGUxMDEyNjIiPnBhdGgxNDwvdGl0bGU+JiN4YTsJCQkJCQkJPHBhdGggaWQ9InBhdGgxMDEyNjQiIGlua3NjYXBlOmNvbm5lY3Rvci1jdXJ2YXR1cmU9IjAiIHN0eWxlPSJmaWxsOiNDMkJGQkY7IiBkPSJNMTMuMDksNjAuNzJjMC0wLjEsMC0wLjE5LTAuMDEtMC4yOSAgICAgICAgIGMtMC4xNi0wLjk1LTAuNjYtMS42Ny0xLjQ0LTIuMjNjLTAuNS0wLjM2LTEuMDctMC42LTEuNjUtMC43OGMtMC4xMS0wLjAzLTAuMTktMC4wNi0wLjMtMC4wOGMwLjAyLTAuMDksMC4wNy0wLjExLDAuMTItMC4xMiAgICAgICAgIGMwLjM1LTAuMTgsMC42OC0wLjM3LDAuOTctMC42MmMwLjU0LTAuNDUsMC45LTEuMDEsMS4wNy0xLjY4YzAuMS0wLjM2LDAuMS0wLjczLDAuMDctMS4xMWMtMC4wOS0wLjk1LTAuNS0xLjY5LTEuMjYtMi4yNCAgICAgICAgIGMtMC44LTAuNTktMS43My0wLjgzLTIuNy0wLjg1Yy0xLjg2LTAuMDMtMy43NCwwLTUuNjEsMGMtMC41NCwwLTEuMDcsMC4wNC0xLjYyLTAuMDVjLTAuMTEtMC4wMi0wLjI1LTAuMDUtMC4zMywwLjA3ICAgICAgICAgYy0wLjE0LDAuMjItMC4yOCwwLjQ1LTAuMzMsMC43MWMtMC4wMiwwLjEyLDAuMDIsMC4xOSwwLjE1LDAuMmMwLjQsMC4wNiwwLjgsMC4xMywxLjIsMC4xOGMwLjQ2LDAuMDcsMC43OSwwLjMzLDAuODMsMC43NCAgICAgICAgIGMwLjAzLDAuMjksMC4wNSwwLjU3LDAuMDUsMC44NmMwLDEuMDgtMC4wMiwyLjE2LTAuMDQsMy4yM2MtMC4wMywyLjEzLTAuMDEsNC4yNy0wLjAxLDYuNGMwLDAuMzgtMC4wNiwwLjc0LTAuMTMsMS4xMiAgICAgICAgIGMtMC4wNSwwLjI2LTAuMTksMC40My0wLjQ0LDAuNTJDMS4zMyw2NC44LDEsNjQuOTEsMC42NCw2NC45MWMtMC4yMywwLTAuMzYsMC4wOC0wLjQ1LDAuMjljLTAuMDcsMC4xNS0wLjE0LDAuMzMtMC4xNiwwLjQ4ICAgICAgICAgQzAsNjUuODksMC4wNSw2NS45NiwwLjI2LDY1LjkyYzAuMTUtMC4wMSw1Ljg2LDAuMTMsNi45MywwLjAyYzAuNjQtMC4wNywxLjI4LTAuMTUsMS45LTAuMzRjMS4wOS0wLjM1LDIuMDktMC44NSwyLjg4LTEuNyAgICAgICAgIGMwLjY2LTAuNjksMS4wNC0xLjUyLDEuMDctMi40OEMxMy4wOSw2MS4xOSwxMy4wOSw2MC45NywxMy4wOSw2MC43MnogTTQuNzIsNTMuNjZjMC4wMy0wLjQ3LDAuMDMtMC45MiwwLjA1LTEuMzggICAgICAgICBjMC0wLjI2LDAuMS0wLjM4LDAuMzYtMC40NGMwLjQyLTAuMDgsMC44My0wLjA1LDEuMjQtMC4wM2MwLjQyLDAuMDMsMC44MiwwLjA5LDEuMjMsMC4yMWMwLjc2LDAuMjIsMS4zNSwwLjY1LDEuNjksMS4zOCAgICAgICAgIGMwLjE2LDAuMzMsMC4yNSwwLjY5LDAuMjUsMS4wNWMwLjAxLDAuNDktMC4wMiwwLjk1LTAuMjEsMS40MmMtMC4yOSwwLjY0LTAuNzYsMS4wNS0xLjQ0LDEuMTcgICAgICAgICBjLTAuNjcsMC4xMy0yLjU5LDAuMDctMi44OCwwLjA3Yy0wLjI2LDAtMC4yOC0wLjAzLTAuMjgtMC4yOWMwLTAuNTUsMC0xLjExLDAtMS42NGwwLDBDNC43LDU0LjcsNC42OCw1NC4xOCw0LjcyLDUzLjY2eiAgICAgICAgICBNMTAuMzMsNjIuOTVjLTAuMjksMC43OC0wLjgzLDEuMzItMS41OSwxLjYxYy0wLjQxLDAuMTYtMC44MywwLjI0LTEuMjgsMC4yMmMtMC41My0wLjAxLTEuMDcsMC0xLjYtMC4xICAgICAgICAgYy0wLjczLTAuMTUtMS4wNi0wLjg1LTEuMTEtMS4zNWMtMC4wOS0wLjg4LTAuMDMtMS43OC0wLjA1LTIuNDNjMC0wLjkyLDAtMS41OSwwLTIuMjhjMC0wLjI4LDAuMDMtMC4zNywwLjMzLTAuMzcgICAgICAgICBjMC41My0wLjAxLDEuMDctMC4wMywxLjYyLDAuMDJjMC4zOCwwLjA0LDAuNzQsMC4wNywxLjExLDAuMTRjMC43NywwLjE3LDEuNDgsMC40NywyLjA0LDEuMDdjMC40NCwwLjQ4LDAuNjksMS4wNywwLjc0LDEuNzEgICAgICAgICBDMTAuNTksNjEuOCwxMC41Niw2Mi4zOCwxMC4zMyw2Mi45NUMxMC4zMyw2Mi45NSwxMC4zMyw2Mi45NSwxMC4zMyw2Mi45NXoiLz4mI3hhOwkJCQkJCTwvZz4mI3hhOwkJCQkJCTxnIGlkPSJzaGFwZTM5NTItMjEiIHRyYW5zZm9ybT0idHJhbnNsYXRlKDI1LjU4NTIpIj4mI3hhOwkJCQkJCQk8dGl0bGUgaWQ9InRpdGxlMTAxMjY3Ij5wYXRoMTY8L3RpdGxlPiYjeGE7CQkJCQkJCTxwYXRoIGlkPSJwYXRoMTAxMjY5IiBpbmtzY2FwZTpjb25uZWN0b3ItY3VydmF0dXJlPSIwIiBzdHlsZT0iZmlsbDojNDc0NzRBOyIgZD0iTTguNzQsNTEuNzJjMC4xNiwwLjAyLDAuMzEsMC4wNiwwLjQ1LDAuMDcgICAgICAgICBjMC40OCwwLjAyLDEuMDUtMC4xNSwxLjIzLTAuODNjMC4wOC0wLjMyLDAuMS0wLjY0LDAtMC45OGMtMC4xMSwwLTAuMTYsMC4wOS0wLjIxLDAuMTJjLTAuMjYsMC4yMS0wLjU1LDAuMzMtMC44NiwwLjM2ICAgICAgICAgQzguNzIsNTAuNTMsOC4xLDUwLjUsNy41LDUwLjI3Yy0wLjI4LTAuMS0wLjU2LTAuMi0wLjg1LTAuMjljLTAuNTktMC4xOS0xLjIxLTAuMjgtMS44My0wLjI0ICAgICAgICAgYy0wLjg4LDAuMDctMS43MSwwLjM2LTIuNDksMC43N2MtMC44MywwLjQ1LTEuNDEsMS4xMy0xLjY5LDIuMDRjLTAuMTYsMC41NC0wLjE3LDEuMDktMC4xLDEuNjRjMC4xNywxLjI3LDAuODIsMi4xNSwyLDIuNjEgICAgICAgICBjMC4wNywwLjAyLDAuMTIsMC4wNSwwLjE5LDAuMDdjMC4xNiwwLjA5LDAuMTcsMC4xNywwLjAzLDAuM2MtMC4xMywwLjEtMC4yNywwLjItMC40MywwLjI5Yy0wLjM0LDAuMjEtMC42OSwwLjQxLTEuMDMsMC42NCAgICAgICAgIGMtMC4yNiwwLjE1LTAuMywwLjI4LTAuMjEsMC41NWMwLjEsMC4zMywwLjI5LDAuNjEsMC41NSwwLjgzYzAuMjQsMC4yMSwwLjUsMC4zNiwwLjgsMC40OGMwLjE5LDAuMDksMC4xOSwwLjE0LDAuMDEsMC4yOCAgICAgICAgIGMtMC4zMywwLjI0LTAuNjUsMC40Ny0wLjk4LDAuNzFjLTAuMzMsMC4yNC0wLjY2LDAuNTItMC45MywwLjgzYy0wLjQsMC40NS0wLjU0LDAuOTctMC40MiwxLjU1ICAgICAgICAgYzAuMTQsMC42MywwLjQzLDEuMTMsMC45LDEuNTZDMS40Nyw2NS4zLDIsNjUuNiwyLjYxLDY1Ljc1YzAuOTcsMC4yOCwxLjk3LDAuMywyLjk1LDAuMTFjMS40Mi0wLjI2LDIuNjUtMC45LDMuNjMtMS45NiAgICAgICAgIGMwLjY3LTAuNywxLjA3LTEuNTMsMS4xMS0yLjU0YzAuMDUtMS4yMS0wLjY5LTIuMjItMS44Ny0yLjUyYy0wLjMxLTAuMDctMC42Mi0wLjEyLTAuOTMtMC4xN2MtMC45NS0wLjEyLTEuOS0wLjE3LTIuODUtMC4yNCAgICAgICAgIGMtMC4zMS0wLjAyLTAuNjItMC4wNy0wLjg4LTAuMjNjLTAuMzMtMC4yLTAuNDItMC42LTAuMjEtMC44NmMwLjE1LTAuMTksMC4zNC0wLjMxLDAuNTktMC4zM2MwLjE5LTAuMDIsMC4zNi0wLjAzLDAuNTUtMC4wNSAgICAgICAgIGMxLjEyLTAuMTIsMi4wOS0wLjU3LDIuOTItMS4zM2MwLjQzLTAuNCwwLjcyLTAuOSwwLjg4LTEuNDdjMC4yMS0wLjc0LDAuMjEtMS41LDAuMDMtMi4yNkM4LjQ4LDUxLjcxLDguNSw1MS42OSw4Ljc0LDUxLjcyeiAgICAgICAgICBNNC41MSw2MC4zM2MwLjEsMC4wMSwwLjIxLDAsMC4zMSwwQzUuNTUsNjAuMzYsNi4yOSw2MC40MSw3LDYwLjZjMC4yNCwwLjA3LDAuNDUsMC4xNiwwLjY3LDAuMjYgICAgICAgICBjMC42OSwwLjM4LDAuOTUsMS4wNCwwLjg2LDEuNzVDOC40Myw2My4zOSw4LDYzLjk0LDcuMzIsNjQuM2MtMC40NCwwLjI0LTAuOTUsMC4zNi0xLjQ2LDAuNDJjLTAuMTksMC4wMS0wLjM3LDAtMC41NiwwICAgICAgICAgYy0wLjYsMC4wMS0xLjE5LTAuMDYtMS43Ni0wLjNjLTAuNC0wLjE1LTAuNzItMC4zOC0xLjAyLTAuNjljLTAuNi0wLjYtMC45LTEuNzEsMC4wMi0yLjYxQzMuMDksNjAuNiwzLjcxLDYwLjI2LDQuNTEsNjAuMzN6ICAgICAgICAgIE02LjQ4LDU0Ljk0Yy0wLjM2LDAuOTEtMS4xNiwxLjE5LTEuOTUsMS4wN2MtMC43My0wLjExLTEuMjYtMC41LTEuNjEtMS4xNmMtMC40NS0wLjg4LTAuNTctMS44LTAuMzEtMi43NSAgICAgICAgIGMwLjE5LTAuNywwLjYyLTEuMjQsMS4zOC0xLjM2YzAuOTctMC4xNywxLjg4LDAuMTcsMi4zOCwxLjE0YzAuMjUsMC40NywwLjM3LDEuMDQsMC4zNywxLjg1ICAgICAgICAgQzYuNzIsNTQuMDYsNi42NSw1NC41MSw2LjQ4LDU0Ljk0eiIvPiYjeGE7CQkJCQkJPC9nPiYjeGE7CQkJCQkJPGcgaWQ9InNoYXBlMzk1My0yMyIgdHJhbnNmb3JtPSJ0cmFuc2xhdGUoMCwtNS43NTI3NykiPiYjeGE7CQkJCQkJCTx0aXRsZSBpZD0idGl0bGUxMDEyNzIiPnBhdGgxODwvdGl0bGU+JiN4YTsJCQkJCQkJPHBhdGggaWQ9InBhdGgxMDEyNzQiIGlua3NjYXBlOmNvbm5lY3Rvci1jdXJ2YXR1cmU9IjAiIHN0eWxlPSJmaWxsOiM0NzQ3NEE7IiBkPSJNMTAuMyw1OS41MmMtMC4xNi0wLjk0LTAuNS0xLjc4LTEuMTQtMi40OSAgICAgICAgIEM4LjIxLDU1Ljk3LDcsNTUuNTIsNS42Myw1NS41MWMtMS4xOS0wLjAyLTIuMzEsMC4zMy0zLjMyLDAuOTVjLTEsMC42Mi0xLjY5LDEuNS0yLjAyLDIuNjRjLTAuMjksMS0wLjI3LDIuMDItMC4wNSwzLjA0ICAgICAgICAgYzAuNjEsMi43MywyLjcxLDMuOTEsNS4yNCwzLjczYzAuNzQtMC4wNSwxLjQ1LTAuMjksMi4xMi0wLjYyYzEtMC40NywxLjczLTEuMjEsMi4yMy0yLjE5YzAuNC0wLjgyLDAuNTctMS42OCwwLjU1LTIuNjYgICAgICAgICBDMTAuMzcsNjAuMTUsMTAuMzUsNTkuODMsMTAuMyw1OS41MnogTTcuODQsNjMuMzVjLTAuMzEsMC44My0wLjksMS4zMy0xLjc4LDEuNDVjLTAuNzYsMC4xMS0xLjQ2LTAuMDgtMi4xLTAuNTMgICAgICAgICBjLTAuNDctMC4zNS0wLjgzLTAuNzgtMS4wOS0xLjNDMi4xNiw2MS41MiwyLjA0LDYwLDIuNCw1OC40NGMwLjEyLTAuNDgsMC4zNi0wLjkxLDAuNzMtMS4yNmMwLjY0LTAuNTgsMS4zOC0wLjcyLDIuMjEtMC41NSAgICAgICAgIGMwLjc5LDAuMTcsMS40LDAuNiwxLjg4LDEuMjZzMC43MywxLjQyLDAuODYsMi4yMWMwLjA3LDAuNCwwLjA3LDAuODEsMC4wOSwxLjA3QzguMTcsNjIsOC4xLDYyLjY4LDcuODQsNjMuMzV6Ii8+JiN4YTsJCQkJCQk8L2c+JiN4YTsJCQkJCQk8ZyBpZD0ic2hhcGUzOTU0LTI1IiB0cmFuc2Zvcm09InRyYW5zbGF0ZSgzNy42MjYzLC01LjczNTUpIj4mI3hhOwkJCQkJCQk8dGl0bGUgaWQ9InRpdGxlMTAxMjc3Ij5wYXRoMjA8L3RpdGxlPiYjeGE7CQkJCQkJCTxwYXRoIGlkPSJwYXRoMTAxMjc5IiBpbmtzY2FwZTpjb25uZWN0b3ItY3VydmF0dXJlPSIwIiBzdHlsZT0iZmlsbDojNDc0NzRBOyIgZD0iTTEwLjQyLDU5LjY0ICAgICAgICAgYy0wLjE0LTEuMDEtMC41LTEuOTItMS4yMS0yLjY4Yy0wLjkzLTEuMDItMi4xNC0xLjQ1LTMuNDktMS40N2MtMS4xNi0wLjAyLTIuMjMsMC4zMS0zLjIyLDAuODggICAgICAgICBjLTEuMSwwLjY2LTEuODYsMS41OS0yLjE1LDIuODVjLTAuMzUsMS40Mi0wLjIxLDIuOCwwLjQxLDQuMTFjMC41NywxLjIxLDEuNTQsMS45OSwyLjgyLDIuMzRjMS40MSwwLjM4LDIuNzYsMC4yLDQuMDctMC40NCAgICAgICAgIGMxLjE0LTAuNTUsMS45Ni0xLjQxLDIuNDItMi41OWMwLjI4LTAuNjksMC4zOC0xLjQzLDAuNC0yLjNDMTAuNDksNjAuMTksMTAuNDUsNTkuOTEsMTAuNDIsNTkuNjR6IE04LjAzLDYzLjExICAgICAgICAgYy0wLjI3LDAuOTMtMC44NiwxLjU0LTEuODUsMS42N2MtMC43MiwwLjExLTEuNDEtMC4wNi0yLjAzLTAuNDhjLTAuNTQtMC4zNi0wLjkyLTAuODUtMS4yLTEuNDIgICAgICAgICBjLTAuMzEtMC42LTAuNDgtMS4yNC0wLjU1LTEuOWMtMC4xLTAuODEtMC4xLTEuNiwwLjA5LTIuNDFjMC4wMy0wLjE2LDAuMDgtMC4zMiwwLjE1LTAuNDdjMC40OS0xLjIxLDEuNTYtMS43NiwyLjgyLTEuNDkgICAgICAgICBjMC44NSwwLjE5LDEuNDgsMC42NiwxLjk3LDEuMzdjMC40NiwwLjY5LDAuNjksMS40NSwwLjc5LDIuMjZjMC4wNiwwLjMzLDAuMDcsMC42NywwLjA2LDAuOTcgICAgICAgICBDOC4yOCw2MS44OCw4LjIyLDYyLjUsOC4wMyw2My4xMXoiLz4mI3hhOwkJCQkJCTwvZz4mI3hhOwkJCQkJPC9nPiYjeGE7CQkJCTwvZz4mI3hhOwkJCTwvZz4mI3hhOwkJPC9nPiYjeGE7CTwvZz4mI3hhOzwvZz4mI3hhOzwvc3ZnPg==;" vertex="1" parent="1">
          <mxGeometry x="1172.5" y="678" width="101" height="64" as="geometry" />
        </mxCell>
        <mxCell id="ygO9R2tAyCTKiadrEur1-2" value="SuiteManager" style="shape=image;verticalLabelPosition=bottom;labelBackgroundColor=#ffffff;verticalAlign=top;aspect=fixed;imageAspect=0;image=data:image/svg+xml,PHN2ZyB4bWxuczpjYz0iaHR0cDovL2NyZWF0aXZlY29tbW9ucy5vcmcvbnMjIiB4bWxuczpkYz0iaHR0cDovL3B1cmwub3JnL2RjL2VsZW1lbnRzLzEuMS8iIHhtbG5zOmlua3NjYXBlPSJodHRwOi8vd3d3Lmlua3NjYXBlLm9yZy9uYW1lc3BhY2VzL2lua3NjYXBlIiB4bWxuczpyZGY9Imh0dHA6Ly93d3cudzMub3JnLzE5OTkvMDIvMjItcmRmLXN5bnRheC1ucyMiIHhtbG5zOnNvZGlwb2RpPSJodHRwOi8vc29kaXBvZGkuc291cmNlZm9yZ2UubmV0L0RURC9zb2RpcG9kaS0wLmR0ZCIgeG1sbnM6c3ZnPSJodHRwOi8vd3d3LnczLm9yZy8yMDAwL3N2ZyIgeG1sbnM9Imh0dHA6Ly93d3cudzMub3JnLzIwMDAvc3ZnIiB4bWxuczp4bGluaz0iaHR0cDovL3d3dy53My5vcmcvMTk5OS94bGluayIgdmVyc2lvbj0iMS4xIiBpZD0ic3ZnMTY4NTI4IiBpbmtzY2FwZTp2ZXJzaW9uPSIwLjkyLjMgKDI0MDU1NDYsIDIwMTgtMDMtMTEpIiBzb2RpcG9kaTpkb2NuYW1lPSJkb3RuZXQuc3ZnIiB4PSIwcHgiIHk9IjBweCIgdmlld0JveD0iMCAwIDQ4IDQ4IiBzdHlsZT0iZW5hYmxlLWJhY2tncm91bmQ6bmV3IDAgMCA0OCA0ODsiIHhtbDpzcGFjZT0icHJlc2VydmUiPiYjeGE7PHNvZGlwb2RpOm5hbWVkdmlldyBib3JkZXJjb2xvcj0iIzY2NjY2NiIgYm9yZGVyb3BhY2l0eT0iMSIgZml0LW1hcmdpbi1ib3R0b209IjAiIGZpdC1tYXJnaW4tbGVmdD0iMCIgZml0LW1hcmdpbi1yaWdodD0iMCIgZml0LW1hcmdpbi10b3A9IjAiIGdyaWR0b2xlcmFuY2U9IjEwIiBndWlkZXRvbGVyYW5jZT0iMTAiIGlkPSJuYW1lZHZpZXcxNjg1MzAiIGlua3NjYXBlOmN1cnJlbnQtbGF5ZXI9InN2ZzE2ODUyOCIgaW5rc2NhcGU6Y3g9IjQzLjc0ODEwNiIgaW5rc2NhcGU6Y3k9IjIxLjc5MTkwMiIgaW5rc2NhcGU6cGFnZW9wYWNpdHk9IjAiIGlua3NjYXBlOnBhZ2VzaGFkb3c9IjIiIGlua3NjYXBlOndpbmRvdy1oZWlnaHQ9IjEwMTciIGlua3NjYXBlOndpbmRvdy1tYXhpbWl6ZWQ9IjEiIGlua3NjYXBlOndpbmRvdy13aWR0aD0iMTkyMCIgaW5rc2NhcGU6d2luZG93LXg9Ii04IiBpbmtzY2FwZTp3aW5kb3cteT0iLTgiIGlua3NjYXBlOnpvb209IjkuMTY1MTI1OSIgb2JqZWN0dG9sZXJhbmNlPSIxMCIgcGFnZWNvbG9yPSIjZmZmZmZmIiBzaG93Z3JpZD0iZmFsc2UiPiYjeGE7CTwvc29kaXBvZGk6bmFtZWR2aWV3PiYjeGE7PGNpcmNsZSBpZD0iZWxsaXBzZTE2ODQ5NyIgc3R5bGU9ImZpbGw6IzVDMkQ5MTsiIGN4PSIyNCIgY3k9IjI0IiByPSIyNCIvPiYjeGE7PHBhdGggaWQ9InBhdGgxNjg1MDIiIGlua3NjYXBlOmNvbm5lY3Rvci1jdXJ2YXR1cmU9IjAiIHN0eWxlPSJmaWxsOiNGRkZGRkY7ZmlsbC1vcGFjaXR5OjAuMDk4OyIgZD0iTTcuMzYsNi43NSAgQy0yLjUzLDE1LjU3LTMuNCwzMC43NCw1LjQyLDQwLjY0UzI5LjQxLDUxLjQsMzkuMyw0Mi41OGMwLjY5LTAuNjEsMS4zNC0xLjI2LDEuOTUtMS45NUw3LjM2LDYuNzV6Ii8+JiN4YTs8cGF0aCBpZD0icGF0aDE2ODUwNyIgaW5rc2NhcGU6Y29ubmVjdG9yLWN1cnZhdHVyZT0iMCIgc3R5bGU9ImZpbGw6I0ZGRkZGRjsiIGQ9Ik01LjU1LDMwLjk0Yy0wLjI4LDAtMC41Ni0wLjExLTAuNzUtMC4zMiAgYy0wLjItMC4yLTAuMzEtMC40Ny0wLjMxLTAuNzVjMC0wLjI4LDAuMTEtMC41NSwwLjMxLTAuNzVDNSwyOC45MSw1LjI3LDI4LjgsNS41NSwyOC44YzAuMjgsMCwwLjU1LDAuMTEsMC43NSwwLjMyICBjMC4yLDAuMiwwLjMxLDAuNDcsMC4zMSwwLjc1YzAsMC4yOC0wLjExLDAuNTUtMC4zMSwwLjc1QzYuMTEsMzAuODIsNS44NCwzMC45NCw1LjU1LDMwLjk0eiIvPiYjeGE7PHBhdGggaWQ9InBhdGgxNjg1MTIiIGlua3NjYXBlOmNvbm5lY3Rvci1jdXJ2YXR1cmU9IjAiIHN0eWxlPSJmaWxsOiNGRkZGRkY7IiBkPSJNMjAuNDUsMzAuNzVoLTEuOTdsLTcuMDItMTAuOTEgIGMtMC4xOC0wLjI3LTAuMzItMC41NS0wLjQ0LTAuODVoLTAuMDZjMC4wNywwLjYyLDAuMDksMS4yNSwwLjA4LDEuODd2OS44OWgtMS42VjE3LjA4aDIuMDhsNi44NCwxMC43MSAgYzAuMjgsMC40NCwwLjQ3LDAuNzUsMC41NSwwLjkxaDAuMDRjLTAuMDgtMC42Ny0wLjExLTEuMzQtMC4xLTIuMDF2LTkuNjFoMS42VjMwLjc1eiIvPiYjeGE7PHBhdGggaWQ9InBhdGgxNjg1MTciIGlua3NjYXBlOmNvbm5lY3Rvci1jdXJ2YXR1cmU9IjAiIHN0eWxlPSJmaWxsOiNGRkZGRkY7IiBkPSJNMzEuMjcsMzAuNzVIMjRWMTcuMDhoNi45M3YxLjQ0aC01LjN2NC41NWg0Ljk0ICB2MS40NGgtNC45NHY0Ljc0aDUuNjRWMzAuNzV6Ii8+JiN4YTs8cGF0aCBpZD0icGF0aDE2ODUyMiIgaW5rc2NhcGU6Y29ubmVjdG9yLWN1cnZhdHVyZT0iMCIgc3R5bGU9ImZpbGw6I0ZGRkZGRjsiIGQ9Ik00MiwxOC41MmgtMy45N3YxMi4yM2gtMS42VjE4LjUySDMyLjV2LTEuNDRINDIgIFYxOC41MnoiLz4mI3hhOzwvc3ZnPg==;" vertex="1" parent="1">
          <mxGeometry x="823.5" y="300" width="48" height="48" as="geometry" />
        </mxCell>
        <mxCell id="ygO9R2tAyCTKiadrEur1-3" value="MSMQ" style="shape=image;verticalLabelPosition=bottom;labelBackgroundColor=#ffffff;verticalAlign=top;aspect=fixed;imageAspect=0;image=data:image/svg+xml,PHN2ZyB4bWxuczpjYz0iaHR0cDovL2NyZWF0aXZlY29tbW9ucy5vcmcvbnMjIiB4bWxuczpkYz0iaHR0cDovL3B1cmwub3JnL2RjL2VsZW1lbnRzLzEuMS8iIHhtbG5zOmlua3NjYXBlPSJodHRwOi8vd3d3Lmlua3NjYXBlLm9yZy9uYW1lc3BhY2VzL2lua3NjYXBlIiB4bWxuczpyZGY9Imh0dHA6Ly93d3cudzMub3JnLzE5OTkvMDIvMjItcmRmLXN5bnRheC1ucyMiIHhtbG5zOnNvZGlwb2RpPSJodHRwOi8vc29kaXBvZGkuc291cmNlZm9yZ2UubmV0L0RURC9zb2RpcG9kaS0wLmR0ZCIgeG1sbnM6c3ZnPSJodHRwOi8vd3d3LnczLm9yZy8yMDAwL3N2ZyIgeG1sbnM9Imh0dHA6Ly93d3cudzMub3JnLzIwMDAvc3ZnIiB4bWxuczp4bGluaz0iaHR0cDovL3d3dy53My5vcmcvMTk5OS94bGluayIgdmVyc2lvbj0iMS4xIiBpZD0ic3ZnNzgyNzUiIGlua3NjYXBlOnZlcnNpb249IjAuOTIuMyAoMjQwNTU0NiwgMjAxOC0wMy0xMSkiIHNvZGlwb2RpOmRvY25hbWU9Im1zbXFfYWRhcHRlci5zdmciIHg9IjBweCIgeT0iMHB4IiB2aWV3Qm94PSIwIDAgNzUuNDYgNjMuNDkiIHN0eWxlPSJlbmFibGUtYmFja2dyb3VuZDpuZXcgMCAwIDc1LjQ2IDYzLjQ5OyIgeG1sOnNwYWNlPSJwcmVzZXJ2ZSI+JiN4YTs8ZmlsdGVyIGlkPSJmaWx0ZXJfMiI+JiN4YTsJPGZlR2F1c3NpYW5CbHVyIGlkPSJmZUdhdXNzaWFuQmx1cjc4MDY3IiBzdGREZXZpYXRpb249IjIiLz4mI3hhOzwvZmlsdGVyPiYjeGE7PHNvZGlwb2RpOm5hbWVkdmlldyBib3JkZXJjb2xvcj0iIzY2NjY2NiIgYm9yZGVyb3BhY2l0eT0iMSIgZml0LW1hcmdpbi1ib3R0b209IjAiIGZpdC1tYXJnaW4tbGVmdD0iMCIgZml0LW1hcmdpbi1yaWdodD0iMCIgZml0LW1hcmdpbi10b3A9IjAiIGdyaWR0b2xlcmFuY2U9IjEwIiBndWlkZXRvbGVyYW5jZT0iMTAiIGlkPSJuYW1lZHZpZXc3ODI3NyIgaW5rc2NhcGU6Y3VycmVudC1sYXllcj0ic3ZnNzgyNzUiIGlua3NjYXBlOmN4PSI2OC45NDAwNjgiIGlua3NjYXBlOmN5PSI5Ljc5MTM2IiBpbmtzY2FwZTpwYWdlb3BhY2l0eT0iMCIgaW5rc2NhcGU6cGFnZXNoYWRvdz0iMiIgaW5rc2NhcGU6d2luZG93LWhlaWdodD0iMTAxNyIgaW5rc2NhcGU6d2luZG93LW1heGltaXplZD0iMSIgaW5rc2NhcGU6d2luZG93LXdpZHRoPSIxOTIwIiBpbmtzY2FwZTp3aW5kb3cteD0iLTgiIGlua3NjYXBlOndpbmRvdy15PSItOCIgaW5rc2NhcGU6em9vbT0iMy41NTY1MDc2IiBvYmplY3R0b2xlcmFuY2U9IjEwIiBwYWdlY29sb3I9IiNmZmZmZmYiIHNob3dncmlkPSJmYWxzZSI+JiN4YTsJPC9zb2RpcG9kaTpuYW1lZHZpZXc+JiN4YTs8ZyBpZD0iZzc4MjczIiB0cmFuc2Zvcm09InRyYW5zbGF0ZSgtMC4yNTAwMjk1OCwtMC4zOTcxNDgyKSI+JiN4YTsJPHRpdGxlIGlkPSJ0aXRsZTc4MDcxIj5QYWdlLTE8L3RpdGxlPiYjeGE7CTxnIGlkPSJncm91cDM5NzctMSIgdHJhbnNmb3JtPSJ0cmFuc2xhdGUoMC41MDAwNTYsLTEuNSkiPiYjeGE7CQk8dGl0bGUgaWQ9InRpdGxlNzgwNzMiPk1TTVEgQWRhcHRlcjwvdGl0bGU+JiN4YTsJCTxnIGlkPSJncm91cDM5NzgtMiIgdHJhbnNmb3JtPSJ0cmFuc2xhdGUoNi42NTQ3KSI+JiN4YTsJCQk8dGl0bGUgaWQ9InRpdGxlNzgwNzUiPlNoZWV0LjM5Nzg8L3RpdGxlPiYjeGE7CQkJPGcgaWQ9InNoYXBlMzk3OS0zIiB0cmFuc2Zvcm09InRyYW5zbGF0ZSgxLjM1NjQ4LC0zMy41Njc0KSI+JiN4YTsJCQkJPHRpdGxlIGlkPSJ0aXRsZTc4MDc3Ij5yZWN0NjExNS4zNDU0MDwvdGl0bGU+JiN4YTsJCQkJJiN4YTsJCQkJCTxyZWN0IGlkPSJyZWN0NzgwNzkiIHg9IjAiIHk9IjQxLjUyIiBzdHlsZT0iZmlsbDojRkZGRkZGO3N0cm9rZTojNTU2QThBO3N0cm9rZS13aWR0aDoxLjU7c3Ryb2tlLW1pdGVybGltaXQ6MzsiIHdpZHRoPSI1OC45NiIgaGVpZ2h0PSIyMy4xMyIvPiYjeGE7CQkJPC9nPiYjeGE7CQkJPGcgaWQ9Imdyb3VwMzk4MC01IiB0cmFuc2Zvcm09InRyYW5zbGF0ZSgzOS44MDMyLC0zOS45NzQ3KSI+JiN4YTsJCQkJPHRpdGxlIGlkPSJ0aXRsZTc4MDgyIj5TaGVldC4zOTgwPC90aXRsZT4mI3hhOwkJCQk8ZyBpZD0ic2hhcGUzOTgxLTYiPiYjeGE7CQkJCQk8dGl0bGUgaWQ9InRpdGxlNzgwODQiPnBhdGg0NjUxPC90aXRsZT4mI3hhOwkJCQkJPHBhdGggaWQ9InBhdGg3ODA4NiIgaW5rc2NhcGU6Y29ubmVjdG9yLWN1cnZhdHVyZT0iMCIgc3R5bGU9ImZpbGw6I0ZGRkZGRjsiIGQ9Ik0xNS45NCw1My4yOVY2NC4xYzAsMC4yOS0wLjIyLDAuNTQtMC41LDAuNTQgICAgICAgbC0xNC45NCwwQzAuMjIsNjQuNjMsMCw2NC4zOSwwLDY0LjFsMC0xMC44MWMwLTAuMDUsMC4wMS0wLjExLDAuMDItMC4xNmMwLjAyLTAuMDksMC4wNy0wLjE3LDAuMTQtMC4yMyAgICAgICBjMC4wOS0wLjEsMC4yMS0wLjE1LDAuMzQtMC4xNWwxNC45NC0wLjAxYzAuMTQsMCwwLjI2LDAuMDYsMC4zNiwwLjE3YzAuMDYsMC4wNiwwLjEsMC4xNSwwLjEyLDAuMjQgICAgICAgQzE1LjkzLDUzLjE5LDE1Ljk0LDUzLjIzLDE1Ljk0LDUzLjI5TDE1Ljk0LDUzLjI5eiIvPiYjeGE7CQkJCTwvZz4mI3hhOwkJCQk8ZyBpZD0ic2hhcGUzOTgyLTgiIHRyYW5zZm9ybT0idHJhbnNsYXRlKDE0LjA4MjUpIj4mI3hhOwkJCQkJPHRpdGxlIGlkPSJ0aXRsZTc4MDg5Ij5wYXRoNDY1MzwvdGl0bGU+JiN4YTsJCQkJCTxwYXRoIGlkPSJwYXRoNzgwOTEiIGlua3NjYXBlOmNvbm5lY3Rvci1jdXJ2YXR1cmU9IjAiIHN0eWxlPSJmaWxsOiNFNUU1RTU7IiBkPSJNMS44NSw1My4yOVY2NC4xYzAsMC4yOS0wLjIyLDAuNTQtMC41LDAuNTQgICAgICAgbC0xLjM1LDBWNTIuNzZoMS4zNWMwLjE0LDAsMC4yNiwwLjA2LDAuMzYsMC4xN2MwLjA2LDAuMDYsMC4xLDAuMTUsMC4xMiwwLjI0QzEuODQsNTMuMiwxLjg1LDUzLjI0LDEuODUsNTMuMjlMMS44NSw1My4yOXoiLz4mI3hhOwkJCQk8L2c+JiN4YTsJCQkJPGcgaWQ9InNoYXBlMzk4My0xMCI+JiN4YTsJCQkJCTx0aXRsZSBpZD0idGl0bGU3ODA5NCI+cGF0aDQ2NTU8L3RpdGxlPiYjeGE7CQkJCQk8cGF0aCBpZD0icGF0aDc4MDk2IiBpbmtzY2FwZTpjb25uZWN0b3ItY3VydmF0dXJlPSIwIiBzdHlsZT0iZmlsbDojRTVFNUU1OyIgZD0iTTAsNTMuMjlWNjQuMWMwLDAuMjksMC4yMiwwLjU0LDAuNSwwLjU0ICAgICAgIGwxLjM1LDBWNTIuNzZIMC41Yy0wLjE0LDAtMC4yNiwwLjA2LTAuMzYsMC4xN2MtMC4wNiwwLjA2LTAuMSwwLjE1LTAuMTIsMC4yNEMwLjAxLDUzLjIsMCw1My4yNCwwLDUzLjI5TDAsNTMuMjl6Ii8+JiN4YTsJCQkJPC9nPiYjeGE7CQkJCTxnIGlkPSJzaGFwZTM5ODQtMTIiIHRyYW5zZm9ybT0idHJhbnNsYXRlKDAuMTg1Mjk2LC02Ljg2NTk0KSI+JiN4YTsJCQkJCTx0aXRsZSBpZD0idGl0bGU3ODA5OSI+cG9seWdvbjQ2NTc8L3RpdGxlPiYjeGE7CQkJCQk8cGF0aCBpZD0icGF0aDc4MTAxIiBpbmtzY2FwZTpjb25uZWN0b3ItY3VydmF0dXJlPSIwIiBzdHlsZT0iZmlsbDojNTVEMkY2OyIgZD0iTTE1LjQyLDU5Ljc2SDBsNy43OCw0Ljg4TDE1LjQyLDU5Ljc2eiIvPiYjeGE7CQkJCTwvZz4mI3hhOwkJCQk8ZyBpZD0ic2hhcGUzOTg1LTE0IiB0cmFuc2Zvcm09InRyYW5zbGF0ZSgwLC0wLjA1ODQzMzUpIj4mI3hhOwkJCQkJPHRpdGxlIGlkPSJ0aXRsZTc4MTA0Ij5wYXRoNDY1OTwvdGl0bGU+JiN4YTsJCQkJCSYjeGE7CQkJCQkJPHBhdGggaWQ9InBhdGg3ODEwNiIgaW5rc2NhcGU6Y29ubmVjdG9yLWN1cnZhdHVyZT0iMCIgc3R5bGU9ImZpbGw6bm9uZTtzdHJva2U6IzU1NkE4QTtzdHJva2Utd2lkdGg6MC41O3N0cm9rZS1taXRlcmxpbWl0OjM7IiBkPSIgICAgICAgTTE1Ljk0LDUzLjQ5djEwLjYyYzAsMC4yOS0wLjIyLDAuNTMtMC41LDAuNTNsLTE0Ljk0LDBjLTAuMjgsMC0wLjUtMC4yNC0wLjUtMC41M2wwLTEwLjYyYzAtMC4wNSwwLjAxLTAuMTEsMC4wMi0wLjE2ICAgICAgIGMwLjA3LTAuMjIsMC4yNi0wLjM3LDAuNDgtMC4zOGwxNC45NC0wLjAxYzAuMTQsMCwwLjI2LDAuMDYsMC4zNiwwLjE2YzAuMDYsMC4wNiwwLjEsMC4xNCwwLjEyLDAuMjMgICAgICAgQzE1LjkzLDUzLjM5LDE1Ljk0LDUzLjQ0LDE1Ljk0LDUzLjQ5TDE1Ljk0LDUzLjQ5eiIvPiYjeGE7CQkJCTwvZz4mI3hhOwkJCQk8ZyBpZD0ic2hhcGUzOTg2LTE2IiB0cmFuc2Zvcm09InRyYW5zbGF0ZSgwLjI1NzU2MSwtNi44NjU5NCkiPiYjeGE7CQkJCQk8dGl0bGUgaWQ9InRpdGxlNzgxMDkiPnBvbHlsaW5lNDY2MTwvdGl0bGU+JiN4YTsJCQkJCTxwYXRoIGlkPSJwYXRoNzgxMTEiIGlua3NjYXBlOmNvbm5lY3Rvci1jdXJ2YXR1cmU9IjAiIHN0eWxlPSJmaWxsOm5vbmU7IiBkPSJNMCw1OS43OGw3LjcxLDQuODZsNy43MS00Ljg2SDB6Ii8+JiN4YTsJCQkJCSYjeGE7CQkJCQkJPHBhdGggaWQ9InBhdGg3ODExMyIgaW5rc2NhcGU6Y29ubmVjdG9yLWN1cnZhdHVyZT0iMCIgc3R5bGU9ImZpbGw6bm9uZTtzdHJva2U6IzU1NkE4QTtzdHJva2Utd2lkdGg6MC41O3N0cm9rZS1taXRlcmxpbWl0OjM7IiBkPSIgICAgICAgTTAsNTkuNzhsNy43MSw0Ljg2bDcuNzEtNC44NiIvPiYjeGE7CQkJCTwvZz4mI3hhOwkJCTwvZz4mI3hhOwkJCTxnIGlkPSJzaGFwZTM5ODctMTkiIHRyYW5zZm9ybT0idHJhbnNsYXRlKDEuODYwNDEsLTMzLjg4NDIpIj4mI3hhOwkJCQk8dGl0bGUgaWQ9InRpdGxlNzgxMTciPnJlY3Q2MTE5LjM0NTQxPC90aXRsZT4mI3hhOwkJCQk8cmVjdCBpZD0icmVjdDc4MTE5IiB4PSIwIiB5PSI0Mi4xNSIgc3R5bGU9ImZpbGw6I0U1RTVFNTsiIHdpZHRoPSI3LjA2IiBoZWlnaHQ9IjIyLjQ5Ii8+JiN4YTsJCQk8L2c+JiN4YTsJCQk8ZyBpZD0iZ3JvdXAzOTg4LTIxIj4mI3hhOwkJCQk8dGl0bGUgaWQ9InRpdGxlNzgxMjIiPkFkYXB0ZXIvQ29ubmVjdG9yPC90aXRsZT4mI3hhOwkJCQk8ZyBpZD0ic2hhcGUzOTg5LTIyIiB0cmFuc2Zvcm09InJvdGF0ZSgtOTAsMTEuNjI1LDQ4LjUxNjUpIj4mI3hhOwkJCQkJPHRpdGxlIGlkPSJ0aXRsZTc4MTI0Ij5saW5lMTU1OTg8L3RpdGxlPiYjeGE7CQkJCQkmI3hhOwkJCQkJCTxwYXRoIGlkPSJwYXRoNzgxMjYiIGlua3NjYXBlOmNvbm5lY3Rvci1jdXJ2YXR1cmU9IjAiIHN0eWxlPSJmaWxsOm5vbmU7c3Ryb2tlOiM1NTZBOEE7c3Ryb2tlLXdpZHRoOjEuNTtzdHJva2UtbWl0ZXJsaW1pdDozOyIgZD0iICAgICAgIE0wLDY0LjY0aDI5LjI1Ii8+JiN4YTsJCQkJPC9nPiYjeGE7CQkJCTxnIGlkPSJzaGFwZTM5OTAtMjUiIHRyYW5zZm9ybT0icm90YXRlKDkwLDMzLjc1LDY0LjY0MTUpIj4mI3hhOwkJCQkJPHRpdGxlIGlkPSJ0aXRsZTc4MTI5Ij5saW5lMTU2MDA8L3RpdGxlPiYjeGE7CQkJCQkmI3hhOwkJCQkJCTxwYXRoIGlkPSJwYXRoNzgxMzEiIGlua3NjYXBlOmNvbm5lY3Rvci1jdXJ2YXR1cmU9IjAiIHN0eWxlPSJmaWxsOm5vbmU7c3Ryb2tlOiM1NTZBOEE7c3Ryb2tlLXdpZHRoOjEuNTtzdHJva2UtbWl0ZXJsaW1pdDozOyIgZD0iICAgICAgIE0wLDY0LjY0aDI3Ii8+JiN4YTsJCQkJPC9nPiYjeGE7CQkJCTxnIGlkPSJzaGFwZTM5OTEtMjgiIHRyYW5zZm9ybT0icm90YXRlKDE4MCwzMC43NSw2MC4xNDE1KSI+JiN4YTsJCQkJCTx0aXRsZSBpZD0idGl0bGU3ODEzNCI+bGluZTE1NjAyPC90aXRsZT4mI3hhOwkJCQkJJiN4YTsJCQkJCQk8cGF0aCBpZD0icGF0aDc4MTM2IiBpbmtzY2FwZTpjb25uZWN0b3ItY3VydmF0dXJlPSIwIiBzdHlsZT0iZmlsbDpub25lO3N0cm9rZTojNTU2QThBO3N0cm9rZS13aWR0aDoxLjU7c3Ryb2tlLW1pdGVybGltaXQ6MzsiIGQ9IiAgICAgICBNMCw2NC42NGg2MS41Ii8+JiN4YTsJCQkJPC9nPiYjeGE7CQkJCTxnIGlkPSJzaGFwZTM5OTItMzEiIHRyYW5zZm9ybT0icm90YXRlKDE4MCwzMC43NSw2My4xNDE1KSI+JiN4YTsJCQkJCTx0aXRsZSBpZD0idGl0bGU3ODEzOSI+bGluZTE1NjA0PC90aXRsZT4mI3hhOwkJCQkJJiN4YTsJCQkJCQk8cGF0aCBpZD0icGF0aDc4MTQxIiBpbmtzY2FwZTpjb25uZWN0b3ItY3VydmF0dXJlPSIwIiBzdHlsZT0iZmlsbDpub25lO3N0cm9rZTojNTU2QThBO3N0cm9rZS13aWR0aDoxLjU7c3Ryb2tlLW1pdGVybGltaXQ6MzsiIGQ9IiAgICAgICBNMCw2NC42NGg2MS41Ii8+JiN4YTsJCQkJPC9nPiYjeGE7CQkJCTxnIGlkPSJzaGFwZTM5OTMtMzQiIHRyYW5zZm9ybT0idHJhbnNsYXRlKDIxLjc1KSI+JiN4YTsJCQkJCTx0aXRsZSBpZD0idGl0bGU3ODE0NCI+cmVjdDE1NjA2PC90aXRsZT4mI3hhOwkJCQkJJiN4YTsJCQkJCQk8cGF0aCBpZD0icGF0aDc4MTQ2IiBpbmtzY2FwZTpjb25uZWN0b3ItY3VydmF0dXJlPSIwIiBzdHlsZT0iZmlsbDojOTI3M0I2O3N0cm9rZTojNTU2QThBO3N0cm9rZS13aWR0aDoxLjU7c3Ryb2tlLW1pdGVybGltaXQ6MzsiIGQ9IiAgICAgICBNMCw2MS42NGMwLDEuNjYsMS4zNCwzLDMsM2gxMmMxLjY2LDAsMy0xLjM0LDMtM3YtNmMwLTEuNjYtMS4zNC0zLTMtM0gzYy0xLjY2LDAtMywxLjM0LTMsM1Y2MS42NHoiLz4mI3hhOwkJCQk8L2c+JiN4YTsJCQk8L2c+JiN4YTsJCQk8ZyBpZD0ic2hhcGUzOTk0LTM2IiB0cmFuc2Zvcm09InRyYW5zbGF0ZSgzNC44Mzk4LC00NC44NjY2KSI+JiN4YTsJCQkJPHRpdGxlIGlkPSJ0aXRsZTc4MTUwIj5TaGVldC4zOTk0PC90aXRsZT4mI3hhOwkJCQk8ZyBpZD0ic2hhZG93Mzk5NC0zNyIgdHJhbnNmb3JtPSJ0cmFuc2xhdGUoMC4zNDU2LDEuOTcyOCkiPiYjeGE7CQkJCQk8ZyBpZD0icmVjdDc4MTUyIiBzdHlsZT0iZmlsdGVyOnVybCgjZmlsdGVyXzIpOyI+JiN4YTsJCQkJCQk8cmVjdCB4PSIwIiB5PSI2Mi41MyIgc3R5bGU9Im9wYWNpdHk6MC4yMjtmaWxsOiM1QjlCRDU7IiB3aWR0aD0iMi42OCIgaGVpZ2h0PSIyLjExIi8+JiN4YTsJCQkJCTwvZz4mI3hhOwkJCQk8L2c+JiN4YTsJCQkJPHJlY3QgaWQ9InJlY3Q3ODE1NSIgeD0iMCIgeT0iNjIuNTMiIHN0eWxlPSJmaWxsOiNCOEQ0MzI7IiB3aWR0aD0iMi42OCIgaGVpZ2h0PSIyLjExIi8+JiN4YTsJCQk8L2c+JiN4YTsJCQk8ZyBpZD0ic2hhcGUzOTk1LTQxIiB0cmFuc2Zvcm09InRyYW5zbGF0ZSgzMC42OTc1LC00NC44NjY2KSI+JiN4YTsJCQkJPHRpdGxlIGlkPSJ0aXRsZTc4MTU4Ij5TaGVldC4zOTk1PC90aXRsZT4mI3hhOwkJCQk8ZyBpZD0ic2hhZG93Mzk5NS00MiIgdHJhbnNmb3JtPSJ0cmFuc2xhdGUoMC4zNDU2LDEuOTcyOCkiPiYjeGE7CQkJCQk8ZyBpZD0icmVjdDc4MTYwIiBzdHlsZT0iZmlsdGVyOnVybCgjZmlsdGVyXzIpOyI+JiN4YTsJCQkJCQk8cmVjdCB4PSIwIiB5PSI2Mi41MyIgc3R5bGU9Im9wYWNpdHk6MC4yMjtmaWxsOiM1QjlCRDU7IiB3aWR0aD0iMi44MyIgaGVpZ2h0PSIyLjExIi8+JiN4YTsJCQkJCTwvZz4mI3hhOwkJCQk8L2c+JiN4YTsJCQkJPHJlY3QgaWQ9InJlY3Q3ODE2MyIgeD0iMCIgeT0iNjIuNTMiIHN0eWxlPSJmaWxsOiNCOEQ0MzI7IiB3aWR0aD0iMi44MyIgaGVpZ2h0PSIyLjExIi8+JiN4YTsJCQk8L2c+JiN4YTsJCQk8ZyBpZD0iZ3JvdXAzOTk2LTQ2IiB0cmFuc2Zvcm09InRyYW5zbGF0ZSgxMS44Mzg4LC0zOS45NzA4KSI+JiN4YTsJCQkJPHRpdGxlIGlkPSJ0aXRsZTc4MTY2Ij5TaGVldC4zOTk2PC90aXRsZT4mI3hhOwkJCQk8ZyBpZD0ic2hhcGUzOTk3LTQ3Ij4mI3hhOwkJCQkJPHRpdGxlIGlkPSJ0aXRsZTc4MTY4Ij5wYXRoNDY1MTwvdGl0bGU+JiN4YTsJCQkJCTxwYXRoIGlkPSJwYXRoNzgxNzAiIGlua3NjYXBlOmNvbm5lY3Rvci1jdXJ2YXR1cmU9IjAiIHN0eWxlPSJmaWxsOiNGRkZGRkY7IiBkPSJNMTUuOTQsNTMuMjlWNjQuMWMwLDAuMjktMC4yMiwwLjU0LTAuNSwwLjU0ICAgICAgIGwtMTQuOTQsMEMwLjIyLDY0LjYzLDAsNjQuMzksMCw2NC4xbDAtMTAuODFjMC0wLjA1LDAuMDEtMC4xMSwwLjAyLTAuMTZjMC4wMi0wLjA5LDAuMDctMC4xNywwLjE0LTAuMjMgICAgICAgYzAuMDktMC4xLDAuMjEtMC4xNSwwLjM0LTAuMTVsMTQuOTQtMC4wMWMwLjE0LDAsMC4yNiwwLjA2LDAuMzYsMC4xN2MwLjA2LDAuMDYsMC4xLDAuMTUsMC4xMiwwLjI0ICAgICAgIEMxNS45Myw1My4xOSwxNS45NCw1My4yMywxNS45NCw1My4yOUwxNS45NCw1My4yOXoiLz4mI3hhOwkJCQk8L2c+JiN4YTsJCQkJPGcgaWQ9InNoYXBlMzk5OC00OSIgdHJhbnNmb3JtPSJ0cmFuc2xhdGUoMTQuMDgyNSkiPiYjeGE7CQkJCQk8dGl0bGUgaWQ9InRpdGxlNzgxNzMiPnBhdGg0NjUzPC90aXRsZT4mI3hhOwkJCQkJPHBhdGggaWQ9InBhdGg3ODE3NSIgaW5rc2NhcGU6Y29ubmVjdG9yLWN1cnZhdHVyZT0iMCIgc3R5bGU9ImZpbGw6I0U1RTVFNTsiIGQ9Ik0xLjg1LDUzLjI5VjY0LjFjMCwwLjI5LTAuMjIsMC41NC0wLjUsMC41NCAgICAgICBsLTEuMzUsMFY1Mi43NmgxLjM1YzAuMTQsMCwwLjI2LDAuMDYsMC4zNiwwLjE3YzAuMDYsMC4wNiwwLjEsMC4xNSwwLjEyLDAuMjRDMS44NCw1My4yLDEuODUsNTMuMjQsMS44NSw1My4yOUwxLjg1LDUzLjI5eiIvPiYjeGE7CQkJCTwvZz4mI3hhOwkJCQk8ZyBpZD0ic2hhcGUzOTk5LTUxIj4mI3hhOwkJCQkJPHRpdGxlIGlkPSJ0aXRsZTc4MTc4Ij5wYXRoNDY1NTwvdGl0bGU+JiN4YTsJCQkJCTxwYXRoIGlkPSJwYXRoNzgxODAiIGlua3NjYXBlOmNvbm5lY3Rvci1jdXJ2YXR1cmU9IjAiIHN0eWxlPSJmaWxsOiNFNUU1RTU7IiBkPSJNMCw1My4yOVY2NC4xYzAsMC4yOSwwLjIyLDAuNTQsMC41LDAuNTQgICAgICAgbDEuMzUsMFY1Mi43NkgwLjVjLTAuMTQsMC0wLjI2LDAuMDYtMC4zNiwwLjE3Yy0wLjA2LDAuMDYtMC4xLDAuMTUtMC4xMiwwLjI0QzAuMDEsNTMuMiwwLDUzLjI0LDAsNTMuMjlMMCw1My4yOXoiLz4mI3hhOwkJCQk8L2c+JiN4YTsJCQkJPGcgaWQ9InNoYXBlNDAwMC01MyIgdHJhbnNmb3JtPSJ0cmFuc2xhdGUoMC4xODUyOTYsLTYuODY1OTQpIj4mI3hhOwkJCQkJPHRpdGxlIGlkPSJ0aXRsZTc4MTgzIj5wb2x5Z29uNDY1NzwvdGl0bGU+JiN4YTsJCQkJCTxwYXRoIGlkPSJwYXRoNzgxODUiIGlua3NjYXBlOmNvbm5lY3Rvci1jdXJ2YXR1cmU9IjAiIHN0eWxlPSJmaWxsOiM1NUQyRjY7IiBkPSJNMTUuNDIsNTkuNzZIMGw3Ljc4LDQuODhMMTUuNDIsNTkuNzZ6Ii8+JiN4YTsJCQkJPC9nPiYjeGE7CQkJCTxnIGlkPSJzaGFwZTQwMDEtNTUiIHRyYW5zZm9ybT0idHJhbnNsYXRlKDAsLTAuMDU4NDMzNSkiPiYjeGE7CQkJCQk8dGl0bGUgaWQ9InRpdGxlNzgxODgiPnBhdGg0NjU5PC90aXRsZT4mI3hhOwkJCQkJJiN4YTsJCQkJCQk8cGF0aCBpZD0icGF0aDc4MTkwIiBpbmtzY2FwZTpjb25uZWN0b3ItY3VydmF0dXJlPSIwIiBzdHlsZT0iZmlsbDpub25lO3N0cm9rZTojNTU2QThBO3N0cm9rZS13aWR0aDowLjU7c3Ryb2tlLW1pdGVybGltaXQ6MzsiIGQ9IiAgICAgICBNMTUuOTQsNTMuNDl2MTAuNjJjMCwwLjI5LTAuMjIsMC41My0wLjUsMC41M2wtMTQuOTQsMGMtMC4yOCwwLTAuNS0wLjI0LTAuNS0wLjUzbDAtMTAuNjJjMC0wLjA1LDAuMDEtMC4xMSwwLjAyLTAuMTYgICAgICAgYzAuMDctMC4yMiwwLjI2LTAuMzcsMC40OC0wLjM4bDE0Ljk0LTAuMDFjMC4xNCwwLDAuMjYsMC4wNiwwLjM2LDAuMTZjMC4wNiwwLjA2LDAuMSwwLjE0LDAuMTIsMC4yMyAgICAgICBDMTUuOTMsNTMuMzksMTUuOTQsNTMuNDQsMTUuOTQsNTMuNDlMMTUuOTQsNTMuNDl6Ii8+JiN4YTsJCQkJPC9nPiYjeGE7CQkJCTxnIGlkPSJzaGFwZTQwMDItNTciIHRyYW5zZm9ybT0idHJhbnNsYXRlKDAuMjU3NTYxLC02Ljg2NTk0KSI+JiN4YTsJCQkJCTx0aXRsZSBpZD0idGl0bGU3ODE5MyI+cG9seWxpbmU0NjYxPC90aXRsZT4mI3hhOwkJCQkJPHBhdGggaWQ9InBhdGg3ODE5NSIgaW5rc2NhcGU6Y29ubmVjdG9yLWN1cnZhdHVyZT0iMCIgc3R5bGU9ImZpbGw6bm9uZTsiIGQ9Ik0wLDU5Ljc4bDcuNzEsNC44Nmw3LjcxLTQuODZIMHoiLz4mI3hhOwkJCQkJJiN4YTsJCQkJCQk8cGF0aCBpZD0icGF0aDc4MTk3IiBpbmtzY2FwZTpjb25uZWN0b3ItY3VydmF0dXJlPSIwIiBzdHlsZT0iZmlsbDpub25lO3N0cm9rZTojNTU2QThBO3N0cm9rZS13aWR0aDowLjU7c3Ryb2tlLW1pdGVybGltaXQ6MzsiIGQ9IiAgICAgICBNMCw1OS43OGw3LjcxLDQuODZsNy43MS00Ljg2Ii8+JiN4YTsJCQkJPC9nPiYjeGE7CQkJPC9nPiYjeGE7CQk8L2c+JiN4YTsJCTxnIGlkPSJncm91cDQwMDMtNjAiIHRyYW5zZm9ybT0idHJhbnNsYXRlKDAsLTUwLjc0NDUpIj4mI3hhOwkJCTx0aXRsZSBpZD0idGl0bGU3ODIwMiI+U2hlZXQuNDAwMzwvdGl0bGU+JiN4YTsJCQk8ZyBpZD0ic2hhcGU0MDA0LTYxIj4mI3hhOwkJCQk8dGl0bGUgaWQ9InRpdGxlNzgyMDQiPnBhdGg0NjUxPC90aXRsZT4mI3hhOwkJCQk8cGF0aCBpZD0icGF0aDc4MjA2IiBpbmtzY2FwZTpjb25uZWN0b3ItY3VydmF0dXJlPSIwIiBzdHlsZT0iZmlsbDojRkZGRkZGOyIgZD0iTTE1Ljk0LDUzLjI5VjY0LjFjMCwwLjI5LTAuMjIsMC41NC0wLjUsMC41NCAgICAgIGwtMTQuOTQsMEMwLjIyLDY0LjYzLDAsNjQuMzksMCw2NC4xbDAtMTAuODFjMC0wLjA1LDAuMDEtMC4xMSwwLjAyLTAuMTZjMC4wMi0wLjA5LDAuMDctMC4xNywwLjE0LTAuMjMgICAgICBjMC4wOS0wLjEsMC4yMS0wLjE1LDAuMzQtMC4xNWwxNC45NC0wLjAxYzAuMTQsMCwwLjI2LDAuMDYsMC4zNiwwLjE3YzAuMDYsMC4wNiwwLjEsMC4xNSwwLjEyLDAuMjQgICAgICBDMTUuOTMsNTMuMTksMTUuOTQsNTMuMjMsMTUuOTQsNTMuMjlMMTUuOTQsNTMuMjl6Ii8+JiN4YTsJCQk8L2c+JiN4YTsJCQk8ZyBpZD0ic2hhcGU0MDA1LTYzIiB0cmFuc2Zvcm09InRyYW5zbGF0ZSgxNC4wODI1KSI+JiN4YTsJCQkJPHRpdGxlIGlkPSJ0aXRsZTc4MjA5Ij5wYXRoNDY1MzwvdGl0bGU+JiN4YTsJCQkJPHBhdGggaWQ9InBhdGg3ODIxMSIgaW5rc2NhcGU6Y29ubmVjdG9yLWN1cnZhdHVyZT0iMCIgc3R5bGU9ImZpbGw6I0U1RTVFNTsiIGQ9Ik0xLjg1LDUzLjI5VjY0LjFjMCwwLjI5LTAuMjIsMC41NC0wLjUsMC41NCAgICAgIGwtMS4zNSwwVjUyLjc2aDEuMzVjMC4xNCwwLDAuMjYsMC4wNiwwLjM2LDAuMTdjMC4wNiwwLjA2LDAuMSwwLjE1LDAuMTIsMC4yNEMxLjg0LDUzLjIsMS44NSw1My4yNCwxLjg1LDUzLjI5TDEuODUsNTMuMjl6Ii8+JiN4YTsJCQk8L2c+JiN4YTsJCQk8ZyBpZD0ic2hhcGU0MDA2LTY1Ij4mI3hhOwkJCQk8dGl0bGUgaWQ9InRpdGxlNzgyMTQiPnBhdGg0NjU1PC90aXRsZT4mI3hhOwkJCQk8cGF0aCBpZD0icGF0aDc4MjE2IiBpbmtzY2FwZTpjb25uZWN0b3ItY3VydmF0dXJlPSIwIiBzdHlsZT0iZmlsbDojRTVFNUU1OyIgZD0iTTAsNTMuMjlWNjQuMWMwLDAuMjksMC4yMiwwLjU0LDAuNSwwLjU0ICAgICAgbDEuMzUsMFY1Mi43NkgwLjVjLTAuMTQsMC0wLjI2LDAuMDYtMC4zNiwwLjE3Yy0wLjA2LDAuMDYtMC4xLDAuMTUtMC4xMiwwLjI0QzAuMDEsNTMuMiwwLDUzLjI0LDAsNTMuMjlMMCw1My4yOXoiLz4mI3hhOwkJCTwvZz4mI3hhOwkJCTxnIGlkPSJzaGFwZTQwMDctNjciIHRyYW5zZm9ybT0idHJhbnNsYXRlKDAuMTg1Mjk2LC02Ljg2NTk0KSI+JiN4YTsJCQkJPHRpdGxlIGlkPSJ0aXRsZTc4MjE5Ij5wb2x5Z29uNDY1NzwvdGl0bGU+JiN4YTsJCQkJPHBhdGggaWQ9InBhdGg3ODIyMSIgaW5rc2NhcGU6Y29ubmVjdG9yLWN1cnZhdHVyZT0iMCIgc3R5bGU9ImZpbGw6IzU1RDJGNjsiIGQ9Ik0xNS40Miw1OS43NkgwbDcuNzgsNC44OEwxNS40Miw1OS43NnoiLz4mI3hhOwkJCTwvZz4mI3hhOwkJCTxnIGlkPSJzaGFwZTQwMDgtNjkiIHRyYW5zZm9ybT0idHJhbnNsYXRlKDAsLTAuMDU4NDMzNSkiPiYjeGE7CQkJCTx0aXRsZSBpZD0idGl0bGU3ODIyNCI+cGF0aDQ2NTk8L3RpdGxlPiYjeGE7CQkJCSYjeGE7CQkJCQk8cGF0aCBpZD0icGF0aDc4MjI2IiBpbmtzY2FwZTpjb25uZWN0b3ItY3VydmF0dXJlPSIwIiBzdHlsZT0iZmlsbDpub25lO3N0cm9rZTojNTU2QThBO3N0cm9rZS13aWR0aDowLjU7c3Ryb2tlLW1pdGVybGltaXQ6MzsiIGQ9IiAgICAgIE0xNS45NCw1My40OXYxMC42MmMwLDAuMjktMC4yMiwwLjUzLTAuNSwwLjUzbC0xNC45NCwwYy0wLjI4LDAtMC41LTAuMjQtMC41LTAuNTNsMC0xMC42MmMwLTAuMDUsMC4wMS0wLjExLDAuMDItMC4xNiAgICAgIGMwLjA3LTAuMjIsMC4yNi0wLjM3LDAuNDgtMC4zOGwxNC45NC0wLjAxYzAuMTQsMCwwLjI2LDAuMDYsMC4zNiwwLjE2YzAuMDYsMC4wNiwwLjEsMC4xNCwwLjEyLDAuMjMgICAgICBDMTUuOTMsNTMuMzksMTUuOTQsNTMuNDQsMTUuOTQsNTMuNDlMMTUuOTQsNTMuNDl6Ii8+JiN4YTsJCQk8L2c+JiN4YTsJCQk8ZyBpZD0ic2hhcGU0MDA5LTcxIiB0cmFuc2Zvcm09InRyYW5zbGF0ZSgwLjI1NzU2MSwtNi44NjU5NCkiPiYjeGE7CQkJCTx0aXRsZSBpZD0idGl0bGU3ODIyOSI+cG9seWxpbmU0NjYxPC90aXRsZT4mI3hhOwkJCQk8cGF0aCBpZD0icGF0aDc4MjMxIiBpbmtzY2FwZTpjb25uZWN0b3ItY3VydmF0dXJlPSIwIiBzdHlsZT0iZmlsbDpub25lOyIgZD0iTTAsNTkuNzhsNy43MSw0Ljg2bDcuNzEtNC44NkgweiIvPiYjeGE7CQkJCSYjeGE7CQkJCQk8cGF0aCBpZD0icGF0aDc4MjMzIiBpbmtzY2FwZTpjb25uZWN0b3ItY3VydmF0dXJlPSIwIiBzdHlsZT0iZmlsbDpub25lO3N0cm9rZTojNTU2QThBO3N0cm9rZS13aWR0aDowLjU7c3Ryb2tlLW1pdGVybGltaXQ6MzsiIGQ9IiAgICAgIE0wLDU5Ljc4bDcuNzEsNC44Nmw3LjcxLTQuODYiLz4mI3hhOwkJCTwvZz4mI3hhOwkJPC9nPiYjeGE7CQk8ZyBpZD0iZ3JvdXA0MDEwLTc0IiB0cmFuc2Zvcm09InRyYW5zbGF0ZSg1OS4wMjI0LC0yNy41MDAzKSI+JiN4YTsJCQk8dGl0bGUgaWQ9InRpdGxlNzgyMzciPlNoZWV0LjQwMTA8L3RpdGxlPiYjeGE7CQkJPGcgaWQ9InNoYXBlNDAxMS03NSI+JiN4YTsJCQkJPHRpdGxlIGlkPSJ0aXRsZTc4MjM5Ij5wYXRoNDY1MTwvdGl0bGU+JiN4YTsJCQkJPHBhdGggaWQ9InBhdGg3ODI0MSIgaW5rc2NhcGU6Y29ubmVjdG9yLWN1cnZhdHVyZT0iMCIgc3R5bGU9ImZpbGw6I0ZGRkZGRjsiIGQ9Ik0xNS45NCw1My4yOVY2NC4xYzAsMC4yOS0wLjIyLDAuNTQtMC41LDAuNTQgICAgICBsLTE0Ljk0LDBDMC4yMiw2NC42MywwLDY0LjM5LDAsNjQuMWwwLTEwLjgxYzAtMC4wNSwwLjAxLTAuMTEsMC4wMi0wLjE2YzAuMDItMC4wOSwwLjA3LTAuMTcsMC4xNC0wLjIzICAgICAgYzAuMDktMC4xLDAuMjEtMC4xNSwwLjM0LTAuMTVsMTQuOTQtMC4wMWMwLjE0LDAsMC4yNiwwLjA2LDAuMzYsMC4xN2MwLjA2LDAuMDYsMC4xLDAuMTUsMC4xMiwwLjI0ICAgICAgQzE1LjkzLDUzLjE5LDE1Ljk0LDUzLjIzLDE1Ljk0LDUzLjI5TDE1Ljk0LDUzLjI5eiIvPiYjeGE7CQkJPC9nPiYjeGE7CQkJPGcgaWQ9InNoYXBlNDAxMi03NyIgdHJhbnNmb3JtPSJ0cmFuc2xhdGUoMTQuMDgyNSkiPiYjeGE7CQkJCTx0aXRsZSBpZD0idGl0bGU3ODI0NCI+cGF0aDQ2NTM8L3RpdGxlPiYjeGE7CQkJCTxwYXRoIGlkPSJwYXRoNzgyNDYiIGlua3NjYXBlOmNvbm5lY3Rvci1jdXJ2YXR1cmU9IjAiIHN0eWxlPSJmaWxsOiNFNUU1RTU7IiBkPSJNMS44NSw1My4yOVY2NC4xYzAsMC4yOS0wLjIyLDAuNTQtMC41LDAuNTQgICAgICBsLTEuMzUsMFY1Mi43NmgxLjM1YzAuMTQsMCwwLjI2LDAuMDYsMC4zNiwwLjE3YzAuMDYsMC4wNiwwLjEsMC4xNSwwLjEyLDAuMjRDMS44NCw1My4yLDEuODUsNTMuMjQsMS44NSw1My4yOUwxLjg1LDUzLjI5eiIvPiYjeGE7CQkJPC9nPiYjeGE7CQkJPGcgaWQ9InNoYXBlNDAxMy03OSI+JiN4YTsJCQkJPHRpdGxlIGlkPSJ0aXRsZTc4MjQ5Ij5wYXRoNDY1NTwvdGl0bGU+JiN4YTsJCQkJPHBhdGggaWQ9InBhdGg3ODI1MSIgaW5rc2NhcGU6Y29ubmVjdG9yLWN1cnZhdHVyZT0iMCIgc3R5bGU9ImZpbGw6I0U1RTVFNTsiIGQ9Ik0wLDUzLjI5VjY0LjFjMCwwLjI5LDAuMjIsMC41NCwwLjUsMC41NCAgICAgIGwxLjM1LDBWNTIuNzZIMC41Yy0wLjE0LDAtMC4yNiwwLjA2LTAuMzYsMC4xN2MtMC4wNiwwLjA2LTAuMSwwLjE1LTAuMTIsMC4yNEMwLjAxLDUzLjIsMCw1My4yNCwwLDUzLjI5TDAsNTMuMjl6Ii8+JiN4YTsJCQk8L2c+JiN4YTsJCQk8ZyBpZD0ic2hhcGU0MDE0LTgxIiB0cmFuc2Zvcm09InRyYW5zbGF0ZSgwLjE4NTI5NiwtNi44NjU5NCkiPiYjeGE7CQkJCTx0aXRsZSBpZD0idGl0bGU3ODI1NCI+cG9seWdvbjQ2NTc8L3RpdGxlPiYjeGE7CQkJCTxwYXRoIGlkPSJwYXRoNzgyNTYiIGlua3NjYXBlOmNvbm5lY3Rvci1jdXJ2YXR1cmU9IjAiIHN0eWxlPSJmaWxsOiNBQUU5MTk7IiBkPSJNMTUuNDIsNTkuNzZIMGw3Ljc4LDQuODhMMTUuNDIsNTkuNzZ6Ii8+JiN4YTsJCQk8L2c+JiN4YTsJCQk8ZyBpZD0ic2hhcGU0MDE1LTgzIiB0cmFuc2Zvcm09InRyYW5zbGF0ZSgwLC0wLjA1ODQzMzUpIj4mI3hhOwkJCQk8dGl0bGUgaWQ9InRpdGxlNzgyNTkiPnBhdGg0NjU5PC90aXRsZT4mI3hhOwkJCQkmI3hhOwkJCQkJPHBhdGggaWQ9InBhdGg3ODI2MSIgaW5rc2NhcGU6Y29ubmVjdG9yLWN1cnZhdHVyZT0iMCIgc3R5bGU9ImZpbGw6bm9uZTtzdHJva2U6IzU1NkE4QTtzdHJva2Utd2lkdGg6MC41O3N0cm9rZS1taXRlcmxpbWl0OjM7IiBkPSIgICAgICBNMTUuOTQsNTMuNDl2MTAuNjJjMCwwLjI5LTAuMjIsMC41My0wLjUsMC41M2wtMTQuOTQsMGMtMC4yOCwwLTAuNS0wLjI0LTAuNS0wLjUzbDAtMTAuNjJjMC0wLjA1LDAuMDEtMC4xMSwwLjAyLTAuMTYgICAgICBjMC4wNy0wLjIyLDAuMjYtMC4zNywwLjQ4LTAuMzhsMTQuOTQtMC4wMWMwLjE0LDAsMC4yNiwwLjA2LDAuMzYsMC4xNmMwLjA2LDAuMDYsMC4xLDAuMTQsMC4xMiwwLjIzICAgICAgQzE1LjkzLDUzLjM5LDE1Ljk0LDUzLjQ0LDE1Ljk0LDUzLjQ5TDE1Ljk0LDUzLjQ5eiIvPiYjeGE7CQkJPC9nPiYjeGE7CQkJPGcgaWQ9InNoYXBlNDAxNi04NSIgdHJhbnNmb3JtPSJ0cmFuc2xhdGUoMC4yNTc1NjEsLTYuODY1OTQpIj4mI3hhOwkJCQk8dGl0bGUgaWQ9InRpdGxlNzgyNjQiPnBvbHlsaW5lNDY2MTwvdGl0bGU+JiN4YTsJCQkJPHBhdGggaWQ9InBhdGg3ODI2NiIgaW5rc2NhcGU6Y29ubmVjdG9yLWN1cnZhdHVyZT0iMCIgc3R5bGU9ImZpbGw6bm9uZTsiIGQ9Ik0wLDU5Ljc4bDcuNzEsNC44Nmw3LjcxLTQuODZIMHoiLz4mI3hhOwkJCQkmI3hhOwkJCQkJPHBhdGggaWQ9InBhdGg3ODI2OCIgaW5rc2NhcGU6Y29ubmVjdG9yLWN1cnZhdHVyZT0iMCIgc3R5bGU9ImZpbGw6bm9uZTtzdHJva2U6IzU1NkE4QTtzdHJva2Utd2lkdGg6MC41O3N0cm9rZS1taXRlcmxpbWl0OjM7IiBkPSIgICAgICBNMCw1OS43OGw3LjcxLDQuODZsNy43MS00Ljg2Ii8+JiN4YTsJCQk8L2c+JiN4YTsJCTwvZz4mI3hhOwk8L2c+JiN4YTs8L2c+JiN4YTs8L3N2Zz4=;" vertex="1" parent="1">
          <mxGeometry x="422.5" y="608.5" width="75" height="63" as="geometry" />
        </mxCell>
        <mxCell id="ygO9R2tAyCTKiadrEur1-4" value="ATM" style="shape=module;align=left;spacingLeft=20;align=center;verticalAlign=top;whiteSpace=wrap;html=1;" vertex="1" parent="1">
          <mxGeometry x="842.5" y="685" width="100" height="50" as="geometry" />
        </mxCell>
        <mxCell id="ygO9R2tAyCTKiadrEur1-5" value="TraceManager" style="shape=module;align=left;spacingLeft=20;align=center;verticalAlign=top;whiteSpace=wrap;html=1;" vertex="1" parent="1">
          <mxGeometry x="682.5" y="500" width="128.5" height="50" as="geometry" />
        </mxCell>
        <mxCell id="ygO9R2tAyCTKiadrEur1-6" style="edgeStyle=orthogonalEdgeStyle;rounded=0;orthogonalLoop=1;jettySize=auto;html=1;entryX=0;entryY=0;entryDx=0;entryDy=15;entryPerimeter=0;exitX=1;exitY=0.5;exitDx=0;exitDy=0;" edge="1" parent="1" source="ygO9R2tAyCTKiadrEur1-3" target="ygO9R2tAyCTKiadrEur1-5">
          <mxGeometry relative="1" as="geometry">
            <Array as="points">
              <mxPoint x="612.5" y="640" />
              <mxPoint x="612.5" y="515" />
            </Array>
          </mxGeometry>
        </mxCell>
        <mxCell id="ygO9R2tAyCTKiadrEur1-29" value="private/trace" style="edgeLabel;html=1;align=center;verticalAlign=middle;resizable=0;points=[];" vertex="1" connectable="0" parent="ygO9R2tAyCTKiadrEur1-6">
          <mxGeometry x="0.13" y="3" relative="1" as="geometry">
            <mxPoint as="offset" />
          </mxGeometry>
        </mxCell>
        <mxCell id="ygO9R2tAyCTKiadrEur1-7" style="edgeStyle=orthogonalEdgeStyle;rounded=0;orthogonalLoop=1;jettySize=auto;html=1;entryX=0;entryY=0;entryDx=0;entryDy=35;entryPerimeter=0;exitX=1;exitY=0.5;exitDx=0;exitDy=0;dashed=1;dashPattern=8 8;endArrow=doubleBlock;endFill=0;" edge="1" parent="1" source="ygO9R2tAyCTKiadrEur1-3" target="ygO9R2tAyCTKiadrEur1-4">
          <mxGeometry relative="1" as="geometry">
            <Array as="points">
              <mxPoint x="612.5" y="640" />
              <mxPoint x="612.5" y="720" />
            </Array>
          </mxGeometry>
        </mxCell>
        <mxCell id="ygO9R2tAyCTKiadrEur1-30" value="private/audit" style="edgeLabel;html=1;align=center;verticalAlign=middle;resizable=0;points=[];" vertex="1" connectable="0" parent="ygO9R2tAyCTKiadrEur1-7">
          <mxGeometry x="-0.2376" y="-3" relative="1" as="geometry">
            <mxPoint y="-9" as="offset" />
          </mxGeometry>
        </mxCell>
        <mxCell id="ygO9R2tAyCTKiadrEur1-8" value="Cycleo&#xa;!! Only Settings no auto" style="shape=image;verticalLabelPosition=bottom;labelBackgroundColor=none;verticalAlign=top;aspect=fixed;imageAspect=0;image=data:image/svg+xml,PHN2ZyB4bWxuczpjYz0iaHR0cDovL2NyZWF0aXZlY29tbW9ucy5vcmcvbnMjIiB4bWxuczpkYz0iaHR0cDovL3B1cmwub3JnL2RjL2VsZW1lbnRzLzEuMS8iIHhtbG5zOmlua3NjYXBlPSJodHRwOi8vd3d3Lmlua3NjYXBlLm9yZy9uYW1lc3BhY2VzL2lua3NjYXBlIiB4bWxuczpyZGY9Imh0dHA6Ly93d3cudzMub3JnLzE5OTkvMDIvMjItcmRmLXN5bnRheC1ucyMiIHhtbG5zOnNvZGlwb2RpPSJodHRwOi8vc29kaXBvZGkuc291cmNlZm9yZ2UubmV0L0RURC9zb2RpcG9kaS0wLmR0ZCIgeG1sbnM6c3ZnPSJodHRwOi8vd3d3LnczLm9yZy8yMDAwL3N2ZyIgeG1sbnM9Imh0dHA6Ly93d3cudzMub3JnLzIwMDAvc3ZnIiB4bWxuczp4bGluaz0iaHR0cDovL3d3dy53My5vcmcvMTk5OS94bGluayIgdmVyc2lvbj0iMS4xIiBpZD0ic3ZnMTMxODQzIiBpbmtzY2FwZTp2ZXJzaW9uPSIwLjkyLjMgKDI0MDU1NDYsIDIwMTgtMDMtMTEpIiBzb2RpcG9kaTpkb2NuYW1lPSJjcHAuc3ZnIiB4PSIwcHgiIHk9IjBweCIgdmlld0JveD0iMCAwIDQ4IDQ4IiBzdHlsZT0iZW5hYmxlLWJhY2tncm91bmQ6bmV3IDAgMCA0OCA0ODsiIHhtbDpzcGFjZT0icHJlc2VydmUiPiYjeGE7PHNvZGlwb2RpOm5hbWVkdmlldyBib3JkZXJjb2xvcj0iIzY2NjY2NiIgYm9yZGVyb3BhY2l0eT0iMSIgZml0LW1hcmdpbi1ib3R0b209IjAiIGZpdC1tYXJnaW4tbGVmdD0iMCIgZml0LW1hcmdpbi1yaWdodD0iMCIgZml0LW1hcmdpbi10b3A9IjAiIGdyaWR0b2xlcmFuY2U9IjEwIiBndWlkZXRvbGVyYW5jZT0iMTAiIGlkPSJuYW1lZHZpZXcxMzE4NDUiIGlua3NjYXBlOmN1cnJlbnQtbGF5ZXI9InN2ZzEzMTg0MyIgaW5rc2NhcGU6Y3g9IjE1LjMwNjA1NiIgaW5rc2NhcGU6Y3k9IjI0Ljc5NTg5NCIgaW5rc2NhcGU6cGFnZW9wYWNpdHk9IjAiIGlua3NjYXBlOnBhZ2VzaGFkb3c9IjIiIGlua3NjYXBlOndpbmRvdy1oZWlnaHQ9IjEwMTciIGlua3NjYXBlOndpbmRvdy1tYXhpbWl6ZWQ9IjEiIGlua3NjYXBlOndpbmRvdy13aWR0aD0iMTkyMCIgaW5rc2NhcGU6d2luZG93LXg9Ii04IiBpbmtzY2FwZTp3aW5kb3cteT0iLTgiIGlua3NjYXBlOnpvb209IjkuMTY1MTI1OSIgb2JqZWN0dG9sZXJhbmNlPSIxMCIgcGFnZWNvbG9yPSIjZmZmZmZmIiBzaG93Z3JpZD0iZmFsc2UiPiYjeGE7CTwvc29kaXBvZGk6bmFtZWR2aWV3PiYjeGE7PGcgaWQ9InNoYXBlOTkzLTIiIHRyYW5zZm9ybT0idHJhbnNsYXRlKDAsLTIuMTY3OTk5MykiPiYjeGE7CTx0aXRsZSBpZD0idGl0bGUxMzE4MTUiPmNpcmNsZTYxMzM8L3RpdGxlPiYjeGE7CTxjaXJjbGUgaWQ9ImVsbGlwc2UxMzE4MTciIHN0eWxlPSJmaWxsOiNCNDA3OUM7IiBjeD0iMjQiIGN5PSIyNi4xNyIgcj0iMjQiLz4mI3hhOzwvZz4mI3hhOzxnIGlkPSJzaGFwZTk5NC00IiB0cmFuc2Zvcm09InRyYW5zbGF0ZSg2LjM2MTM5LC04LjUyOTM4OTMpIj4mI3hhOwk8dGl0bGUgaWQ9InRpdGxlMTMxODIwIj5wYXRoNjEzNTwvdGl0bGU+JiN4YTsJPHBhdGggaWQ9InBhdGgxMzE4MjIiIGlua3NjYXBlOmNvbm5lY3Rvci1jdXJ2YXR1cmU9IjAiIHN0eWxlPSJmaWxsOiNGRkZGRkY7ZmlsbC1vcGFjaXR5OjAuMDk4OyIgZD0iTTEsMTUuMjggICBDLTguODksMjQuMS05Ljc3LDM5LjI3LTAuOTUsNDkuMTdzMjMuOTksMTAuNzcsMzMuODksMS45NWMwLjY5LTAuNjEsMS4zNC0xLjI2LDEuOTUtMS45NUwxLDE1LjI4eiIvPiYjeGE7PC9nPiYjeGE7PGcgaWQ9InNoYXBlOTk1LTYiIHRyYW5zZm9ybT0idHJhbnNsYXRlKDkuOTIyNTAwMiwtMTYuMzk1NDk5KSI+JiN4YTsJPHRpdGxlIGlkPSJ0aXRsZTEzMTgyNSI+cGF0aDYxMzc8L3RpdGxlPiYjeGE7CTxwYXRoIGlkPSJwYXRoMTMxODI3IiBpbmtzY2FwZTpjb25uZWN0b3ItY3VydmF0dXJlPSIwIiBzdHlsZT0iZmlsbDojRkZGRkZGOyIgZD0iTTE0LjEzLDQ5LjA2Yy0xLjYzLDAuNzktMy40NCwxLjE4LTUuMjUsMS4xMSAgIGMtMi40MywwLjExLTQuNzgtMC44NC02LjQ2LTIuNkMwLjc2LDQ1LjctMC4xMSw0My4yNiwwLDQwLjc2Yy0wLjEyLTIuNzIsMC44OC01LjM3LDIuNzUtNy4zNGMxLjgyLTEuODUsNC4zMy0yLjg2LDYuOTItMi43NyAgIGMxLjUyLTAuMDYsMy4wNCwwLjIsNC40NiwwLjc1djIuMzZjLTEuMzgtMC43Ni0yLjkzLTEuMTUtNC41LTEuMTNjLTEuOTgtMC4wNy0zLjg5LDAuNzItNS4yNSwyLjE3Yy0xLjQxLDEuNi0yLjEzLDMuNjgtMi4wMyw1LjgxICAgYy0wLjExLDIuMDEsMC41NywzLjk5LDEuODksNS41MWMxLjI4LDEuMzgsMy4wOSwyLjEyLDQuOTcsMi4wNWMxLjczLDAuMDQsMy40NC0wLjQsNC45My0xLjI3TDE0LjEzLDQ5LjA2eiIvPiYjeGE7PC9nPiYjeGE7PGcgaWQ9InNoYXBlOTk2LTgiIHRyYW5zZm9ybT0idHJhbnNsYXRlKDI0Ljc1LC0yMS42Njc5OTkpIj4mI3hhOwk8dGl0bGUgaWQ9InRpdGxlMTMxODMwIj5wb2x5Z29uNjEzOTwvdGl0bGU+JiN4YTsJPHBhdGggaWQ9InBhdGgxMzE4MzIiIGlua3NjYXBlOmNvbm5lY3Rvci1jdXJ2YXR1cmU9IjAiIHN0eWxlPSJmaWxsOiNGMkYyRjI7IiBkPSJNNC41LDQyLjY3SDN2M0gwdjEuNWgzdjNoMS41di0zaDN2LTEuNWgtM1Y0Mi42NyAgIHoiLz4mI3hhOzwvZz4mI3hhOzxnIGlkPSJzaGFwZTk5Ny0xMCIgdHJhbnNmb3JtPSJ0cmFuc2xhdGUoMzMuNzUsLTIxLjY2Nzk5OSkiPiYjeGE7CTx0aXRsZSBpZD0idGl0bGUxMzE4MzUiPnBvbHlnb242MTQxPC90aXRsZT4mI3hhOwk8cGF0aCBpZD0icGF0aDEzMTgzNyIgaW5rc2NhcGU6Y29ubmVjdG9yLWN1cnZhdHVyZT0iMCIgc3R5bGU9ImZpbGw6I0YyRjJGMjsiIGQ9Ik00LjUsNDIuNjdIM3YzSDB2MS41aDN2M2gxLjV2LTNoM3YtMS41aC0zVjQyLjY3ICAgeiIvPiYjeGE7PC9nPiYjeGE7PC9zdmc+;" vertex="1" parent="1">
          <mxGeometry x="436" y="810" width="48" height="48" as="geometry" />
        </mxCell>
        <mxCell id="ygO9R2tAyCTKiadrEur1-12" style="edgeStyle=orthogonalEdgeStyle;rounded=0;orthogonalLoop=1;jettySize=auto;html=1;entryX=0;entryY=0;entryDx=0;entryDy=15;endArrow=oval;endFill=1;entryPerimeter=0;exitX=0.5;exitY=1;exitDx=0;exitDy=0;" edge="1" parent="1" source="ygO9R2tAyCTKiadrEur1-11" target="ygO9R2tAyCTKiadrEur1-4">
          <mxGeometry relative="1" as="geometry">
            <Array as="points">
              <mxPoint x="746.5" y="700" />
            </Array>
          </mxGeometry>
        </mxCell>
        <mxCell id="ygO9R2tAyCTKiadrEur1-13" value="API&amp;nbsp;" style="edgeLabel;html=1;align=center;verticalAlign=middle;resizable=0;points=[];" vertex="1" connectable="0" parent="ygO9R2tAyCTKiadrEur1-12">
          <mxGeometry x="-0.3013" relative="1" as="geometry">
            <mxPoint as="offset" />
          </mxGeometry>
        </mxCell>
        <mxCell id="ygO9R2tAyCTKiadrEur1-25" value="" style="edgeStyle=orthogonalEdgeStyle;rounded=0;orthogonalLoop=1;jettySize=auto;html=1;exitX=1;exitY=0.5;exitDx=0;exitDy=0;" edge="1" parent="1" source="ygO9R2tAyCTKiadrEur1-11" target="ygO9R2tAyCTKiadrEur1-24">
          <mxGeometry relative="1" as="geometry">
            <Array as="points">
              <mxPoint x="852.5" y="605" />
            </Array>
          </mxGeometry>
        </mxCell>
        <mxCell id="ygO9R2tAyCTKiadrEur1-11" value="Ihm.Application" style="shape=module;align=left;spacingLeft=20;align=center;verticalAlign=top;whiteSpace=wrap;html=1;" vertex="1" parent="1">
          <mxGeometry x="682.5" y="580" width="128.5" height="50" as="geometry" />
        </mxCell>
        <mxCell id="ygO9R2tAyCTKiadrEur1-15" value="" style="shape=image;verticalLabelPosition=bottom;labelBackgroundColor=#ffffff;verticalAlign=top;aspect=fixed;imageAspect=0;image=data:image/svg+xml,PHN2ZyB4bWxuczpjYz0iaHR0cDovL2NyZWF0aXZlY29tbW9ucy5vcmcvbnMjIiB4bWxuczpkYz0iaHR0cDovL3B1cmwub3JnL2RjL2VsZW1lbnRzLzEuMS8iIHhtbG5zOmlua3NjYXBlPSJodHRwOi8vd3d3Lmlua3NjYXBlLm9yZy9uYW1lc3BhY2VzL2lua3NjYXBlIiB4bWxuczpyZGY9Imh0dHA6Ly93d3cudzMub3JnLzE5OTkvMDIvMjItcmRmLXN5bnRheC1ucyMiIHhtbG5zOnNvZGlwb2RpPSJodHRwOi8vc29kaXBvZGkuc291cmNlZm9yZ2UubmV0L0RURC9zb2RpcG9kaS0wLmR0ZCIgeG1sbnM6c3ZnPSJodHRwOi8vd3d3LnczLm9yZy8yMDAwL3N2ZyIgeG1sbnM9Imh0dHA6Ly93d3cudzMub3JnLzIwMDAvc3ZnIiB4bWxuczp4bGluaz0iaHR0cDovL3d3dy53My5vcmcvMTk5OS94bGluayIgdmVyc2lvbj0iMS4xIiBpZD0ic3ZnMTgxNTczIiBpbmtzY2FwZTp2ZXJzaW9uPSIwLjkyLjMgKDI0MDU1NDYsIDIwMTgtMDMtMTEpIiBzb2RpcG9kaTpkb2NuYW1lPSJqc29uLnN2ZyIgeD0iMHB4IiB5PSIwcHgiIHZpZXdCb3g9IjAgMCA3Ni41IDc1LjYzIiBzdHlsZT0iZW5hYmxlLWJhY2tncm91bmQ6bmV3IDAgMCA3Ni41IDc1LjYzOyIgeG1sOnNwYWNlPSJwcmVzZXJ2ZSI+JiN4YTs8c29kaXBvZGk6bmFtZWR2aWV3IGJvcmRlcmNvbG9yPSIjNjY2NjY2IiBib3JkZXJvcGFjaXR5PSIxIiBmaXQtbWFyZ2luLWJvdHRvbT0iMCIgZml0LW1hcmdpbi1sZWZ0PSIwIiBmaXQtbWFyZ2luLXJpZ2h0PSIwIiBmaXQtbWFyZ2luLXRvcD0iMCIgZ3JpZHRvbGVyYW5jZT0iMTAiIGd1aWRldG9sZXJhbmNlPSIxMCIgaWQ9Im5hbWVkdmlldzE4MTU3NSIgaW5rc2NhcGU6Y3VycmVudC1sYXllcj0ic3ZnMTgxNTczIiBpbmtzY2FwZTpjeD0iNTEiIGlua3NjYXBlOmN5PSI1MC40MjEyNjciIGlua3NjYXBlOnBhZ2VvcGFjaXR5PSIwIiBpbmtzY2FwZTpwYWdlc2hhZG93PSIyIiBpbmtzY2FwZTp3aW5kb3ctaGVpZ2h0PSIxMDE3IiBpbmtzY2FwZTp3aW5kb3ctbWF4aW1pemVkPSIxIiBpbmtzY2FwZTp3aW5kb3ctd2lkdGg9IjE5MjAiIGlua3NjYXBlOndpbmRvdy14PSItOCIgaW5rc2NhcGU6d2luZG93LXk9Ii04IiBpbmtzY2FwZTp6b29tPSI4LjU5Nzk5NjkiIG9iamVjdHRvbGVyYW5jZT0iMTAiIHBhZ2Vjb2xvcj0iI2ZmZmZmZiIgc2hvd2dyaWQ9ImZhbHNlIj4mI3hhOwk8L3NvZGlwb2RpOm5hbWVkdmlldz4mI3hhOzxnIGlkPSJnMTgxNTcxIj4mI3hhOwk8dGl0bGUgaWQ9InRpdGxlMTgxNTEyIj5QYWdlLTE8L3RpdGxlPiYjeGE7CTxnIGlkPSJncm91cDEwNzctMSI+JiN4YTsJCTx0aXRsZSBpZD0idGl0bGUxODE1MTQiPkpTT048L3RpdGxlPiYjeGE7CQk8ZyBpZD0ic2hhcGUxMDc4LTIiPiYjeGE7CQkJPHRpdGxlIGlkPSJ0aXRsZTE4MTUxNiI+U2hlZXQuMTA3ODwvdGl0bGU+JiN4YTsJCQk8cGF0aCBpZD0icGF0aDE4MTUxOCIgaW5rc2NhcGU6Y29ubmVjdG9yLWN1cnZhdHVyZT0iMCIgc3R5bGU9ImZpbGw6Izk3NzdBODsiIGQ9Ik0wLDM3LjgxQzAsMTYuOTQsMTcuMTMsMCwzOC4yNSwwICAgICBDNTkuNDIsMCw3Ni41LDE2Ljk0LDc2LjUsMzcuODFjMCwyMC45My0xNy4wOCwzNy44Mi0zOC4yNSwzNy44MkMxNy4xMyw3NS42MywwLDU4Ljc0LDAsMzcuODF6Ii8+JiN4YTsJCTwvZz4mI3hhOwkJPGcgaWQ9Imdyb3VwMTA3OS00IiB0cmFuc2Zvcm09InRyYW5zbGF0ZSgxNS42NTM0LC0xNy4zOTk4KSI+JiN4YTsJCQk8dGl0bGUgaWQ9InRpdGxlMTgxNTIxIj5TaGVldC4xMDc5PC90aXRsZT4mI3hhOwkJCTxnIGlkPSJncm91cDEwODAtNSIgdHJhbnNmb3JtPSJ0cmFuc2xhdGUoNi43NDUzLC0xNi40NDE5KSI+JiN4YTsJCQkJPHRpdGxlIGlkPSJ0aXRsZTE4MTUyMyI+U2hlZXQuMTA4MDwvdGl0bGU+JiN4YTsJCQkJPGcgaWQ9InNoYXBlMTA4MS02Ij4mI3hhOwkJCQkJPHRpdGxlIGlkPSJ0aXRsZTE4MTUyNSI+U2hlZXQuMTA4MTwvdGl0bGU+JiN4YTsJCQkJCTxwYXRoIGlkPSJwYXRoMTgxNTI3IiBpbmtzY2FwZTpjb25uZWN0b3ItY3VydmF0dXJlPSIwIiBzdHlsZT0iZmlsbDojRkZGRkZGOyIgZD0iTTYuMSw1OS43OFY1NC45YzAtMC42NywwLjU0LTEuMjIsMS4yMi0xLjIyICAgICAgIGMwLjY3LDAsMS4yMi0wLjU1LDEuMjItMS4yMmMwLTAuNjctMC41NS0xLjIyLTEuMjItMS4yMmMtMi4wMiwwLTMuNjYsMS42NC0zLjY2LDMuNjZ2NC44OGMwLDEuMzQtMS4xLDIuNDQtMi40NCwyLjQ0ICAgICAgIEMwLjU1LDYyLjIyLDAsNjIuNzYsMCw2My40M2MwLDAuNjgsMC41NSwxLjIyLDEuMjIsMS4yMmMxLjM0LDAsMi40NCwxLjEsMi40NCwyLjQ0djQuODhjMCwyLjAyLDEuNjQsMy42NiwzLjY2LDMuNjYgICAgICAgYzAuNjcsMCwxLjIyLTAuNTUsMS4yMi0xLjIycy0wLjU1LTEuMjItMS4yMi0xLjIyYy0wLjY4LDAtMS4yMi0wLjU1LTEuMjItMS4yMnYtNC44OGMwLTEuNDYtMC42Ni0yLjc2LTEuNjktMy42NiAgICAgICBDNS40NCw2Mi41NCw2LjEsNjEuMjQsNi4xLDU5Ljc4eiIvPiYjeGE7CQkJCTwvZz4mI3hhOwkJCQk8ZyBpZD0ic2hhcGUxMDgyLTgiIHRyYW5zZm9ybT0idHJhbnNsYXRlKDE0LjAyMjMsLTE0LjYzMikiPiYjeGE7CQkJCQk8dGl0bGUgaWQ9InRpdGxlMTgxNTMwIj5TaGVldC4xMDgyPC90aXRsZT4mI3hhOwkJCQkJPGNpcmNsZSBpZD0iZWxsaXBzZTE4MTUzMiIgc3R5bGU9ImZpbGw6I0ZGRkZGRjsiIGN4PSIxLjgzIiBjeT0iNzMuOCIgcj0iMS44MyIvPiYjeGE7CQkJCTwvZz4mI3hhOwkJCQk8ZyBpZD0ic2hhcGUxMDgzLTEwIiB0cmFuc2Zvcm09InRyYW5zbGF0ZSgyMy4xNjczKSI+JiN4YTsJCQkJCTx0aXRsZSBpZD0idGl0bGUxODE1MzUiPlNoZWV0LjEwODM8L3RpdGxlPiYjeGE7CQkJCQk8cGF0aCBpZD0icGF0aDE4MTUzNyIgaW5rc2NhcGU6Y29ubmVjdG9yLWN1cnZhdHVyZT0iMCIgc3R5bGU9ImZpbGw6I0ZGRkZGRjsiIGQ9Ik03LjMyLDYyLjIyYy0xLjM1LDAtMi40NC0xLjEtMi40NC0yLjQ0VjU0LjkgICAgICAgYzAtMi4wMi0xLjY0LTMuNjYtMy42Ni0zLjY2QzAuNTUsNTEuMjQsMCw1MS43OSwwLDUyLjQ2YzAsMC42NywwLjU1LDEuMjIsMS4yMiwxLjIyczEuMjIsMC41NSwxLjIyLDEuMjJ2NC44OCAgICAgICBjMCwxLjQ2LDAuNjYsMi43NiwxLjY4LDMuNjVjLTEuMDIsMC45LTEuNjgsMi4yLTEuNjgsMy42NnY0Ljg4YzAsMC42Ny0wLjU1LDEuMjItMS4yMiwxLjIyUzAsNzMuNzQsMCw3NC40MSAgICAgICBzMC41NSwxLjIyLDEuMjIsMS4yMmMyLjAyLDAsMy42Ni0xLjY0LDMuNjYtMy42NnYtNC44OGMwLTEuMzQsMS4wOS0yLjQ0LDIuNDQtMi40NGMwLjY3LDAsMS4yMi0wLjU0LDEuMjItMS4yMiAgICAgICBDOC41NCw2Mi43Niw3Ljk5LDYyLjIyLDcuMzIsNjIuMjJ6Ii8+JiN4YTsJCQkJPC9nPiYjeGE7CQkJCTxnIGlkPSJzaGFwZTEwODQtMTIiIHRyYW5zZm9ybT0idHJhbnNsYXRlKDE0LjYzMiwtMy42NTc5OSkiPiYjeGE7CQkJCQk8dGl0bGUgaWQ9InRpdGxlMTgxNTQwIj5TaGVldC4xMDg0PC90aXRsZT4mI3hhOwkJCQkJPHBhdGggaWQ9InBhdGgxODE1NDIiIGlua3NjYXBlOmNvbm5lY3Rvci1jdXJ2YXR1cmU9IjAiIHN0eWxlPSJmaWxsOiNGRkZGRkY7IiBkPSJNMS4yMiw2OS41M0MwLjU1LDY5LjUzLDAsNzAuMDgsMCw3MC43NXYzLjY2ICAgICAgIGMwLDAuNjcsMC41NSwxLjIyLDEuMjIsMS4yMnMxLjIyLTAuNTUsMS4yMi0xLjIydi0zLjY2QzIuNDQsNzAuMDgsMS44OSw2OS41MywxLjIyLDY5LjUzeiIvPiYjeGE7CQkJCTwvZz4mI3hhOwkJCTwvZz4mI3hhOwkJCTxnIGlkPSJncm91cDEwODUtMTQiPiYjeGE7CQkJCTx0aXRsZSBpZD0idGl0bGUxODE1NDYiPlNoZWV0LjEwODU8L3RpdGxlPiYjeGE7CQkJCTxnIGlkPSJzaGFwZTEwODYtMTUiPiYjeGE7CQkJCQk8dGl0bGUgaWQ9InRpdGxlMTgxNTQ4Ij5TaGVldC4xMDg2PC90aXRsZT4mI3hhOwkJCQkJPHBhdGggaWQ9InBhdGgxODE1NTAiIGlua3NjYXBlOmNvbm5lY3Rvci1jdXJ2YXR1cmU9IjAiIHN0eWxlPSJmaWxsOiNGRkZGRkY7IiBkPSJNOC4yNCw2MS44djEwLjQ5YzAsMC42My0wLjEyLDEuMTYtMC4zNSwxLjU5ICAgICAgIGMtMC4yMywwLjQ0LTAuNTQsMC43OC0wLjkzLDEuMDVjLTAuMzksMC4yNi0wLjg0LDAuNDQtMS4zNCwwLjU0Yy0wLjUxLDAuMTEtMS4wMywwLjE2LTEuNTYsMC4xNmMtMC4yNywwLTAuNTktMC4wMy0wLjk1LTAuMDggICAgICAgQzIuNzYsNzUuNDksMi4zOCw3NS40MSwyLDc1LjI5cy0wLjc1LTAuMjUtMS4xLTAuMzljLTAuMzYtMC4xNS0wLjY2LTAuMzEtMC45LTAuNWwwLjkzLTEuNDdjMC4xMiwwLjA4LDAuMywwLjE3LDAuNTIsMC4yNiAgICAgICBjMC4yMywwLjA5LDAuNDgsMC4xOCwwLjc0LDAuMjVjMC4yNywwLjA4LDAuNTUsMC4xNSwwLjg0LDAuMjFjMC4zLDAuMDcsMC41NywwLjEsMC44MiwwLjFjMC42NSwwLDEuMTYtMC4xMywxLjU1LTAuMzggICAgICAgYzAuMzgtMC4yNSwwLjU4LTAuNjcsMC42MS0xLjI3VjYxLjhIOC4yNHoiLz4mI3hhOwkJCQk8L2c+JiN4YTsJCQkJPGcgaWQ9InNoYXBlMTA4Ny0xNyIgdHJhbnNmb3JtPSJ0cmFuc2xhdGUoMTEuMzI0NywtMC4wMTg3MDUyKSI+JiN4YTsJCQkJCTx0aXRsZSBpZD0idGl0bGUxODE1NTMiPlNoZWV0LjEwODc8L3RpdGxlPiYjeGE7CQkJCQk8cGF0aCBpZD0icGF0aDE4MTU1NSIgaW5rc2NhcGU6Y29ubmVjdG9yLWN1cnZhdHVyZT0iMCIgc3R5bGU9ImZpbGw6I0ZGRkZGRjsiIGQ9Ik03LjgyLDcxLjg3YzAsMC40OC0wLjEsMC45NS0wLjMsMS40MSAgICAgICBjLTAuMiwwLjQ2LTAuNDksMC44Ni0wLjg1LDEuMjFjLTAuMzcsMC4zNC0wLjgyLDAuNjItMS4zNSwwLjgzYy0wLjU0LDAuMjEtMS4xNSwwLjMxLTEuODMsMC4zMWMtMC4yOSwwLTAuNTktMC4wMi0wLjktMC4wNSAgICAgICBjLTAuMzItMC4wMy0wLjYzLTAuMDgtMC45NS0wLjE1Yy0wLjMxLTAuMDgtMC42MS0wLjE4LTAuOS0wLjNDMC40NSw3NSwwLjIxLDc0Ljg0LDAsNzQuNjZsMC4zOC0xLjU3ICAgICAgIGMwLjE3LDAuMSwwLjM5LDAuMTksMC42NSwwLjI4czAuNTMsMC4xOCwwLjgxLDAuMjZzMC41NiwwLjE0LDAuODQsMC4xOXMwLjU1LDAuMDcsMC43OSwwLjA3YzAuNzQsMCwxLjMxLTAuMTcsMS43MS0wLjUyICAgICAgIGMwLjM5LTAuMzUsMC41OS0wLjg2LDAuNTktMS41NGMwLTAuNDItMC4xNC0wLjc3LTAuNDItMS4wNmMtMC4yOC0wLjI5LTAuNjMtMC41Ni0xLjA1LTAuOGMtMC40Mi0wLjIzLTAuODctMC40Ny0xLjM2LTAuNzEgICAgICAgQzIuNDUsNjkuMDIsMiw2OC43NCwxLjU3LDY4LjQycy0wLjc4LTAuNy0xLjA2LTEuMTRzLTAuNDItMC45OS0wLjQyLTEuNjRjMC0wLjYsMC4xMS0xLjEzLDAuMzMtMS41OXMwLjUxLTAuODYsMC44OS0xLjE4ICAgICAgIGMwLjM3LTAuMzIsMC44LTAuNTcsMS4yOS0wLjc0YzAuNS0wLjE3LDEuMDItMC4yNiwxLjU2LTAuMjZjMC41NiwwLDEuMTMsMC4wNiwxLjcsMC4xNnMxLjA0LDAuMjcsMS4zOSwwLjUgICAgICAgQzcuMTgsNjIuNjksNy4wOSw2Mi44Niw3LDYzLjA1Yy0wLjEsMC4xOS0wLjE5LDAuMzctMC4yOCwwLjUzYy0wLjA4LDAuMTctMC4xNiwwLjMtMC4yMiwwLjQxYy0wLjA2LDAuMTEtMC4wOSwwLjE3LTAuMTEsMC4xOSAgICAgICBjLTAuMDctMC4wNC0wLjE1LTAuMDktMC4yNC0wLjE1Yy0wLjEtMC4wNi0wLjIzLTAuMTItMC40LTAuMThjLTAuMTctMC4wNi0wLjM5LTAuMTEtMC42Ny0wLjEzQzQuOCw2My42OSw0LjQ0LDYzLjcsNCw2My43NCAgICAgICBjLTAuMjUsMC4wMi0wLjQ4LDAuMDktMC43LDAuMjFjLTAuMjIsMC4xMS0wLjQxLDAuMjYtMC41OCwwLjQzYy0wLjE3LDAuMTctMC4zMSwwLjM2LTAuNCwwLjU3Yy0wLjEsMC4yMi0wLjE1LDAuNDItMC4xNSwwLjYxICAgICAgIGMwLDAuNDksMC4xNCwwLjg4LDAuNDIsMS4xOHMwLjYzLDAuNTYsMS4wNCwwLjc5YzAuNDEsMC4yMiwwLjg3LDAuNDQsMS4zNSwwLjY2YzAuNDksMC4yMSwwLjk0LDAuNDcsMS4zNywwLjc3ICAgICAgIGMwLjQyLDAuMzEsMC43NiwwLjY5LDEuMDUsMS4xNEM3LjY4LDcwLjU2LDcuODIsNzEuMTUsNy44Miw3MS44N3oiLz4mI3hhOwkJCQk8L2c+JiN4YTsJCQkJPGcgaWQ9InNoYXBlMTA4OC0xOSIgdHJhbnNmb3JtPSJ0cmFuc2xhdGUoMjEuMTU0MykiPiYjeGE7CQkJCQk8dGl0bGUgaWQ9InRpdGxlMTgxNTU4Ij5TaGVldC4xMDg4PC90aXRsZT4mI3hhOwkJCQkJPHBhdGggaWQ9InBhdGgxODE1NjAiIGlua3NjYXBlOmNvbm5lY3Rvci1jdXJ2YXR1cmU9IjAiIHN0eWxlPSJmaWxsOiNGRkZGRkY7IiBkPSJNMTEuMjIsNjguNzRjMCwxLjEzLTAuMTUsMi4xMy0wLjQzLDMgICAgICAgYy0wLjI5LDAuODYtMC42OSwxLjU4LTEuMTksMi4xNWMtMC41MSwwLjU3LTEuMSwxLjAxLTEuNzcsMS4zYy0wLjY4LDAuMjktMS40MiwwLjQ0LTIuMjIsMC40NGMtMC44MSwwLTEuNTUtMC4xNS0yLjIyLTAuNDQgICAgICAgYy0wLjY4LTAuMjktMS4yNy0wLjcyLTEuNzctMS4zYy0wLjUxLTAuNTctMC45MS0xLjI5LTEuMTktMi4xNUMwLjE0LDcwLjg3LDAsNjkuODcsMCw2OC43NGMwLTEuMTMsMC4xNC0yLjEzLDAuNDMtMi45OCAgICAgICBjMC4yOC0wLjg2LDAuNjgtMS41OCwxLjE5LTIuMTVjMC41LTAuNTcsMS4wOS0xLjAxLDEuNzctMS4zMWMwLjY3LTAuMywxLjQxLTAuNDQsMi4yMi0wLjQ0YzAuOCwwLDEuNTQsMC4xNCwyLjIyLDAuNDQgICAgICAgYzAuNjcsMC4zLDEuMjYsMC43NCwxLjc3LDEuMzFjMC41LDAuNTcsMC45LDEuMjksMS4xOSwyLjE1QzExLjA3LDY2LjYxLDExLjIyLDY3LjYxLDExLjIyLDY4Ljc0eiBNNS41NSw3My44NCAgICAgICBjMC40NSwwLDAuODgtMC4wOSwxLjI5LTAuMjdjMC40MS0wLjE3LDAuNzctMC40NiwxLjEtMC44NmMwLjMyLTAuNCwwLjU3LTAuOTMsMC43NS0xLjU4YzAuMTktMC42NiwwLjI4LTEuNDUsMC4zLTIuMzkgICAgICAgYy0wLjAyLTAuOTEtMC4xMS0xLjY5LTAuMjktMi4zM2MtMC4xNy0wLjYzLTAuNDItMS4xNi0wLjczLTEuNThjLTAuMzEtMC40MS0wLjY2LTAuNzEtMS4wNi0wLjg5ICAgICAgIGMtMC4zOS0wLjE4LTAuODEtMC4yOC0xLjI1LTAuMjhjLTAuNDUsMC0wLjg4LDAuMDktMS4yOSwwLjI2cy0wLjc3LDAuNDYtMS4wOSwwLjg3Yy0wLjMyLDAuNC0wLjU4LDAuOTMtMC43NiwxLjU4ICAgICAgIGMtMC4xOCwwLjY0LTAuMjgsMS40My0wLjI5LDIuMzdjMC4wMSwwLjkyLDAuMSwxLjY5LDAuMjgsMi4zNGMwLjE4LDAuNjUsMC40MiwxLjE3LDAuNzMsMS41OHMwLjY3LDAuNzEsMS4wNiwwLjkgICAgICAgQzQuNyw3My43NSw1LjExLDczLjg0LDUuNTUsNzMuODR6Ii8+JiN4YTsJCQkJPC9nPiYjeGE7CQkJCTxnIGlkPSJzaGFwZTEwODktMjEiIHRyYW5zZm9ybT0idHJhbnNsYXRlKDM1LjQ1NzEsLTAuMDkwODU0MSkiPiYjeGE7CQkJCQk8dGl0bGUgaWQ9InRpdGxlMTgxNTYzIj5TaGVldC4xMDg5PC90aXRsZT4mI3hhOwkJCQkJPHBhdGggaWQ9InBhdGgxODE1NjUiIGlua3NjYXBlOmNvbm5lY3Rvci1jdXJ2YXR1cmU9IjAiIHN0eWxlPSJmaWxsOiNGRkZGRkY7IiBkPSJNOS43NCw2Mi4xN3YxMy40Nkg3LjUxbC01LjI4LTkuMjh2OS4yOEgwICAgICAgIFY2Mi4xN2gyLjIzbDUuMjgsOS4yN3YtOS4yN0w5Ljc0LDYyLjE3eiIvPiYjeGE7CQkJCTwvZz4mI3hhOwkJCTwvZz4mI3hhOwkJPC9nPiYjeGE7CTwvZz4mI3hhOzwvZz4mI3hhOzwvc3ZnPg==;" vertex="1" parent="1">
          <mxGeometry x="618.87" y="697.65" width="20.26" height="20" as="geometry" />
        </mxCell>
        <mxCell id="ygO9R2tAyCTKiadrEur1-18" value="" style="shape=image;verticalLabelPosition=bottom;labelBackgroundColor=#ffffff;verticalAlign=top;aspect=fixed;imageAspect=0;image=data:image/svg+xml,PHN2ZyB4bWxuczpjYz0iaHR0cDovL2NyZWF0aXZlY29tbW9ucy5vcmcvbnMjIiB4bWxuczpkYz0iaHR0cDovL3B1cmwub3JnL2RjL2VsZW1lbnRzLzEuMS8iIHhtbG5zOmlua3NjYXBlPSJodHRwOi8vd3d3Lmlua3NjYXBlLm9yZy9uYW1lc3BhY2VzL2lua3NjYXBlIiB4bWxuczpyZGY9Imh0dHA6Ly93d3cudzMub3JnLzE5OTkvMDIvMjItcmRmLXN5bnRheC1ucyMiIHhtbG5zOnNvZGlwb2RpPSJodHRwOi8vc29kaXBvZGkuc291cmNlZm9yZ2UubmV0L0RURC9zb2RpcG9kaS0wLmR0ZCIgeG1sbnM6c3ZnPSJodHRwOi8vd3d3LnczLm9yZy8yMDAwL3N2ZyIgeG1sbnM9Imh0dHA6Ly93d3cudzMub3JnLzIwMDAvc3ZnIiB4bWxuczp4bGluaz0iaHR0cDovL3d3dy53My5vcmcvMTk5OS94bGluayIgdmVyc2lvbj0iMS4xIiBpZD0ic3ZnMTIzMTI5IiBpbmtzY2FwZTp2ZXJzaW9uPSIwLjkyLjMgKDI0MDU1NDYsIDIwMTgtMDMtMTEpIiBzb2RpcG9kaTpkb2NuYW1lPSJjb2RlX3NhbXBsZXNfMS5zdmciIHg9IjBweCIgeT0iMHB4IiB2aWV3Qm94PSIwIDAgNDUgNDIuNDgiIHN0eWxlPSJlbmFibGUtYmFja2dyb3VuZDpuZXcgMCAwIDQ1IDQyLjQ4OyIgeG1sOnNwYWNlPSJwcmVzZXJ2ZSI+JiN4YTs8c29kaXBvZGk6bmFtZWR2aWV3IGJvcmRlcmNvbG9yPSIjNjY2NjY2IiBib3JkZXJvcGFjaXR5PSIxIiBmaXQtbWFyZ2luLWJvdHRvbT0iMCIgZml0LW1hcmdpbi1sZWZ0PSIwIiBmaXQtbWFyZ2luLXJpZ2h0PSIwIiBmaXQtbWFyZ2luLXRvcD0iMCIgZ3JpZHRvbGVyYW5jZT0iMTAiIGd1aWRldG9sZXJhbmNlPSIxMCIgaWQ9Im5hbWVkdmlldzEyMzEzMSIgaW5rc2NhcGU6Y3VycmVudC1sYXllcj0ic3ZnMTIzMTI5IiBpbmtzY2FwZTpjeD0iMjkuOTk5MTg1IiBpbmtzY2FwZTpjeT0iMjguMzE5Nzg2IiBpbmtzY2FwZTpwYWdlb3BhY2l0eT0iMCIgaW5rc2NhcGU6cGFnZXNoYWRvdz0iMiIgaW5rc2NhcGU6d2luZG93LWhlaWdodD0iMTAxNyIgaW5rc2NhcGU6d2luZG93LW1heGltaXplZD0iMSIgaW5rc2NhcGU6d2luZG93LXdpZHRoPSIxOTIwIiBpbmtzY2FwZTp3aW5kb3cteD0iLTgiIGlua3NjYXBlOndpbmRvdy15PSItOCIgaW5rc2NhcGU6em9vbT0iMTUuMzA3MDc0IiBvYmplY3R0b2xlcmFuY2U9IjEwIiBwYWdlY29sb3I9IiNmZmZmZmYiIHNob3dncmlkPSJmYWxzZSI+JiN4YTsJPC9zb2RpcG9kaTpuYW1lZHZpZXc+JiN4YTs8ZyBpZD0iZzEyMzEyNyIgdHJhbnNmb3JtPSJ0cmFuc2xhdGUoMCwtNC4xNTg4Mzg5ZS01KSI+JiN4YTsJPHRpdGxlIGlkPSJ0aXRsZTEyMzA5NyI+UGFnZS0xPC90aXRsZT4mI3hhOwk8ZyBpZD0iZ3JvdXAyODg2LTEiPiYjeGE7CQk8dGl0bGUgaWQ9InRpdGxlMTIzMDk5Ij5Db2RlIFNhbXBsZXMgIzE8L3RpdGxlPiYjeGE7CQk8ZyBpZD0ic2hhcGUyODg3LTIiIHRyYW5zZm9ybT0idHJhbnNsYXRlKDE0LjI3OTYsLTI4LjUwMDIpIj4mI3hhOwkJCTx0aXRsZSBpZD0idGl0bGUxMjMxMDEiPlNoZWV0LjI4ODc8L3RpdGxlPiYjeGE7CQkJPHBhdGggaWQ9InBhdGgxMjMxMDMiIGlua3NjYXBlOmNvbm5lY3Rvci1jdXJ2YXR1cmU9IjAiIHN0eWxlPSJmaWxsOiMyQkM3RjQ7IiBkPSJNMCwzNC45OGgxNi41djcuNUgwVjM0Ljk4eiIvPiYjeGE7CQk8L2c+JiN4YTsJCTxnIGlkPSJzaGFwZTI4ODgtNCIgdHJhbnNmb3JtPSJ0cmFuc2xhdGUoMTQuMjc5NiwtMTguMDAwMSkiPiYjeGE7CQkJPHRpdGxlIGlkPSJ0aXRsZTEyMzEwNiI+U2hlZXQuMjg4ODwvdGl0bGU+JiN4YTsJCQk8cGF0aCBpZD0icGF0aDEyMzEwOCIgaW5rc2NhcGU6Y29ubmVjdG9yLWN1cnZhdHVyZT0iMCIgc3R5bGU9ImZpbGw6IzJCQzdGNDsiIGQ9Ik0wLDM0Ljk4aDE2LjV2Ny41SDBWMzQuOTh6Ii8+JiN4YTsJCTwvZz4mI3hhOwkJPGcgaWQ9InNoYXBlMjg4OS02IiB0cmFuc2Zvcm09InRyYW5zbGF0ZSgxNC4yNzk2LC03LjUwMDA2KSI+JiN4YTsJCQk8dGl0bGUgaWQ9InRpdGxlMTIzMTExIj5TaGVldC4yODg5PC90aXRsZT4mI3hhOwkJCTxwYXRoIGlkPSJwYXRoMTIzMTEzIiBpbmtzY2FwZTpjb25uZWN0b3ItY3VydmF0dXJlPSIwIiBzdHlsZT0iZmlsbDojMkJDN0Y0OyIgZD0iTTAsMzQuOThoMTYuNXY3LjVIMFYzNC45OHoiLz4mI3hhOwkJPC9nPiYjeGE7CQk8ZyBpZD0ic2hhcGUyODkwLTgiIHRyYW5zZm9ybT0idHJhbnNsYXRlKDM0LjQzOTEpIj4mI3hhOwkJCTx0aXRsZSBpZD0idGl0bGUxMjMxMTYiPlNoZWV0LjI4OTA8L3RpdGxlPiYjeGE7CQkJPHBhdGggaWQ9InBhdGgxMjMxMTgiIGlua3NjYXBlOmNvbm5lY3Rvci1jdXJ2YXR1cmU9IjAiIHN0eWxlPSJmaWxsOiM1NTZBOEE7IiBkPSJNMC4wNiw0MC45OGgwLjQyICAgICBjMS4xNC0wLjA2LDIuMjItMC41NCwzLjA2LTEuMzJjMC43Mi0wLjc4LDEuMDItMi4xLDEuMDItNC4zOHYtNy4yYzAtMS44LDAuNTQtMy40OCwxLjU2LTQuOThjMC41NC0wLjg0LDEuMzgtMS41LDIuNC0xLjg2ICAgICBjLTIuNjQtMC45LTMuOTYtMy4xMi0zLjk2LTYuNlY3LjI2YzAtMi4zNC0wLjMtMy42Ni0xLjA4LTQuNDRDMi42NCwyLjA0LDEuNTYsMS41NiwwLjM2LDEuNUgwTDAuMTIsMGgwLjM2bDAsMCAgICAgYzEuNTYsMC4wNiwzLDAuNzIsNC4wOCwxLjhjMS4wMiwxLjA4LDEuNSwyLjcsMS41LDUuNDZ2Ny4zMmMwLDMuMTgsMS4yNiw0Ljk4LDMuOSw1LjQ2bDAuNiwwLjEydjIuMTZsLTAuNiwwLjEybDAsMCAgICAgYy0xLjAyLDAuMDYtMS45MiwwLjYtMi41MiwxLjVjLTAuODQsMS4yLTEuMzIsMi41OC0xLjM4LDQuMDh2Ny4yYzAsMi43Ni0wLjQyLDQuMzgtMS41LDUuNDZjLTEuMDIsMS4wOC0yLjQ2LDEuNzQtMy45LDEuOEgwLjMgICAgIEwwLjA2LDQwLjk4eiIvPiYjeGE7CQk8L2c+JiN4YTsJCTxnIGlkPSJzaGFwZTI4OTEtMTAiPiYjeGE7CQkJPHRpdGxlIGlkPSJ0aXRsZTEyMzEyMSI+U2hlZXQuMjg5MTwvdGl0bGU+JiN4YTsJCQk8cGF0aCBpZD0icGF0aDEyMzEyMyIgaW5rc2NhcGU6Y29ubmVjdG9yLWN1cnZhdHVyZT0iMCIgc3R5bGU9ImZpbGw6IzU1NkE4QTsiIGQ9Ik0xMC41LDQwLjk4aC0wLjM2ICAgICBjLTEuMi0wLjA2LTIuMjgtMC41NC0zLjEyLTEuMzJDNi4zLDM4Ljg4LDYsMzcuNTYsNiwzNS4yOHYtNy4yYzAtMS44LTAuNTQtMy40OC0xLjU2LTQuOTJjLTAuNTQtMC45LTEuMzgtMS41Ni0yLjQtMS45MiAgICAgQzQuNjgsMjAuMzQsNiwxOC4xMiw2LDE0LjY0VjcuMjZDNiw0LjkyLDYuMywzLjYsNy4wOCwyLjg4QzcuOTIsMi4wNCw5LDEuNTYsMTAuMiwxLjVoMC4zNkwxMC40NCwwaC0wLjM2bDAsMCAgICAgQzguNTIsMC4wNiw3LjA4LDAuNzIsNiwxLjhDNC45OCwyLjg4LDQuNSw0LjUsNC41LDcuMjZ2Ny4zMmMwLDMuMTgtMS4yNiw0Ljk4LTMuOSw1LjQ2TDAsMjAuMTZ2Mi4xNmwwLjYsMC4xMmwwLDAgICAgIGMxLjAyLDAuMDYsMS45MiwwLjYsMi41MiwxLjVjMC44NCwxLjIsMS4zMiwyLjU4LDEuMzgsNC4wOHY3LjJjMCwyLjc2LDAuNDIsNC4zOCwxLjUsNS40NmMxLjAyLDEuMDgsMi40NiwxLjc0LDMuOTYsMS44aDAuMzYgICAgIEwxMC41LDQwLjk4eiIvPiYjeGE7CQk8L2c+JiN4YTsJPC9nPiYjeGE7PC9nPiYjeGE7PC9zdmc+;" vertex="1" parent="1">
          <mxGeometry x="932.5" y="725" width="21.43" height="20" as="geometry" />
        </mxCell>
        <mxCell id="ygO9R2tAyCTKiadrEur1-19" value="" style="shape=image;verticalLabelPosition=bottom;labelBackgroundColor=#ffffff;verticalAlign=top;aspect=fixed;imageAspect=0;image=data:image/svg+xml,PHN2ZyB4bWxuczpjYz0iaHR0cDovL2NyZWF0aXZlY29tbW9ucy5vcmcvbnMjIiB4bWxuczpkYz0iaHR0cDovL3B1cmwub3JnL2RjL2VsZW1lbnRzLzEuMS8iIHhtbG5zOmlua3NjYXBlPSJodHRwOi8vd3d3Lmlua3NjYXBlLm9yZy9uYW1lc3BhY2VzL2lua3NjYXBlIiB4bWxuczpyZGY9Imh0dHA6Ly93d3cudzMub3JnLzE5OTkvMDIvMjItcmRmLXN5bnRheC1ucyMiIHhtbG5zOnNvZGlwb2RpPSJodHRwOi8vc29kaXBvZGkuc291cmNlZm9yZ2UubmV0L0RURC9zb2RpcG9kaS0wLmR0ZCIgeG1sbnM6c3ZnPSJodHRwOi8vd3d3LnczLm9yZy8yMDAwL3N2ZyIgeG1sbnM9Imh0dHA6Ly93d3cudzMub3JnLzIwMDAvc3ZnIiB4bWxuczp4bGluaz0iaHR0cDovL3d3dy53My5vcmcvMTk5OS94bGluayIgdmVyc2lvbj0iMS4xIiBpZD0ic3ZnMTIzMTI5IiBpbmtzY2FwZTp2ZXJzaW9uPSIwLjkyLjMgKDI0MDU1NDYsIDIwMTgtMDMtMTEpIiBzb2RpcG9kaTpkb2NuYW1lPSJjb2RlX3NhbXBsZXNfMS5zdmciIHg9IjBweCIgeT0iMHB4IiB2aWV3Qm94PSIwIDAgNDUgNDIuNDgiIHN0eWxlPSJlbmFibGUtYmFja2dyb3VuZDpuZXcgMCAwIDQ1IDQyLjQ4OyIgeG1sOnNwYWNlPSJwcmVzZXJ2ZSI+JiN4YTs8c29kaXBvZGk6bmFtZWR2aWV3IGJvcmRlcmNvbG9yPSIjNjY2NjY2IiBib3JkZXJvcGFjaXR5PSIxIiBmaXQtbWFyZ2luLWJvdHRvbT0iMCIgZml0LW1hcmdpbi1sZWZ0PSIwIiBmaXQtbWFyZ2luLXJpZ2h0PSIwIiBmaXQtbWFyZ2luLXRvcD0iMCIgZ3JpZHRvbGVyYW5jZT0iMTAiIGd1aWRldG9sZXJhbmNlPSIxMCIgaWQ9Im5hbWVkdmlldzEyMzEzMSIgaW5rc2NhcGU6Y3VycmVudC1sYXllcj0ic3ZnMTIzMTI5IiBpbmtzY2FwZTpjeD0iMjkuOTk5MTg1IiBpbmtzY2FwZTpjeT0iMjguMzE5Nzg2IiBpbmtzY2FwZTpwYWdlb3BhY2l0eT0iMCIgaW5rc2NhcGU6cGFnZXNoYWRvdz0iMiIgaW5rc2NhcGU6d2luZG93LWhlaWdodD0iMTAxNyIgaW5rc2NhcGU6d2luZG93LW1heGltaXplZD0iMSIgaW5rc2NhcGU6d2luZG93LXdpZHRoPSIxOTIwIiBpbmtzY2FwZTp3aW5kb3cteD0iLTgiIGlua3NjYXBlOndpbmRvdy15PSItOCIgaW5rc2NhcGU6em9vbT0iMTUuMzA3MDc0IiBvYmplY3R0b2xlcmFuY2U9IjEwIiBwYWdlY29sb3I9IiNmZmZmZmYiIHNob3dncmlkPSJmYWxzZSI+JiN4YTsJPC9zb2RpcG9kaTpuYW1lZHZpZXc+JiN4YTs8ZyBpZD0iZzEyMzEyNyIgdHJhbnNmb3JtPSJ0cmFuc2xhdGUoMCwtNC4xNTg4Mzg5ZS01KSI+JiN4YTsJPHRpdGxlIGlkPSJ0aXRsZTEyMzA5NyI+UGFnZS0xPC90aXRsZT4mI3hhOwk8ZyBpZD0iZ3JvdXAyODg2LTEiPiYjeGE7CQk8dGl0bGUgaWQ9InRpdGxlMTIzMDk5Ij5Db2RlIFNhbXBsZXMgIzE8L3RpdGxlPiYjeGE7CQk8ZyBpZD0ic2hhcGUyODg3LTIiIHRyYW5zZm9ybT0idHJhbnNsYXRlKDE0LjI3OTYsLTI4LjUwMDIpIj4mI3hhOwkJCTx0aXRsZSBpZD0idGl0bGUxMjMxMDEiPlNoZWV0LjI4ODc8L3RpdGxlPiYjeGE7CQkJPHBhdGggaWQ9InBhdGgxMjMxMDMiIGlua3NjYXBlOmNvbm5lY3Rvci1jdXJ2YXR1cmU9IjAiIHN0eWxlPSJmaWxsOiMyQkM3RjQ7IiBkPSJNMCwzNC45OGgxNi41djcuNUgwVjM0Ljk4eiIvPiYjeGE7CQk8L2c+JiN4YTsJCTxnIGlkPSJzaGFwZTI4ODgtNCIgdHJhbnNmb3JtPSJ0cmFuc2xhdGUoMTQuMjc5NiwtMTguMDAwMSkiPiYjeGE7CQkJPHRpdGxlIGlkPSJ0aXRsZTEyMzEwNiI+U2hlZXQuMjg4ODwvdGl0bGU+JiN4YTsJCQk8cGF0aCBpZD0icGF0aDEyMzEwOCIgaW5rc2NhcGU6Y29ubmVjdG9yLWN1cnZhdHVyZT0iMCIgc3R5bGU9ImZpbGw6IzJCQzdGNDsiIGQ9Ik0wLDM0Ljk4aDE2LjV2Ny41SDBWMzQuOTh6Ii8+JiN4YTsJCTwvZz4mI3hhOwkJPGcgaWQ9InNoYXBlMjg4OS02IiB0cmFuc2Zvcm09InRyYW5zbGF0ZSgxNC4yNzk2LC03LjUwMDA2KSI+JiN4YTsJCQk8dGl0bGUgaWQ9InRpdGxlMTIzMTExIj5TaGVldC4yODg5PC90aXRsZT4mI3hhOwkJCTxwYXRoIGlkPSJwYXRoMTIzMTEzIiBpbmtzY2FwZTpjb25uZWN0b3ItY3VydmF0dXJlPSIwIiBzdHlsZT0iZmlsbDojMkJDN0Y0OyIgZD0iTTAsMzQuOThoMTYuNXY3LjVIMFYzNC45OHoiLz4mI3hhOwkJPC9nPiYjeGE7CQk8ZyBpZD0ic2hhcGUyODkwLTgiIHRyYW5zZm9ybT0idHJhbnNsYXRlKDM0LjQzOTEpIj4mI3hhOwkJCTx0aXRsZSBpZD0idGl0bGUxMjMxMTYiPlNoZWV0LjI4OTA8L3RpdGxlPiYjeGE7CQkJPHBhdGggaWQ9InBhdGgxMjMxMTgiIGlua3NjYXBlOmNvbm5lY3Rvci1jdXJ2YXR1cmU9IjAiIHN0eWxlPSJmaWxsOiM1NTZBOEE7IiBkPSJNMC4wNiw0MC45OGgwLjQyICAgICBjMS4xNC0wLjA2LDIuMjItMC41NCwzLjA2LTEuMzJjMC43Mi0wLjc4LDEuMDItMi4xLDEuMDItNC4zOHYtNy4yYzAtMS44LDAuNTQtMy40OCwxLjU2LTQuOThjMC41NC0wLjg0LDEuMzgtMS41LDIuNC0xLjg2ICAgICBjLTIuNjQtMC45LTMuOTYtMy4xMi0zLjk2LTYuNlY3LjI2YzAtMi4zNC0wLjMtMy42Ni0xLjA4LTQuNDRDMi42NCwyLjA0LDEuNTYsMS41NiwwLjM2LDEuNUgwTDAuMTIsMGgwLjM2bDAsMCAgICAgYzEuNTYsMC4wNiwzLDAuNzIsNC4wOCwxLjhjMS4wMiwxLjA4LDEuNSwyLjcsMS41LDUuNDZ2Ny4zMmMwLDMuMTgsMS4yNiw0Ljk4LDMuOSw1LjQ2bDAuNiwwLjEydjIuMTZsLTAuNiwwLjEybDAsMCAgICAgYy0xLjAyLDAuMDYtMS45MiwwLjYtMi41MiwxLjVjLTAuODQsMS4yLTEuMzIsMi41OC0xLjM4LDQuMDh2Ny4yYzAsMi43Ni0wLjQyLDQuMzgtMS41LDUuNDZjLTEuMDIsMS4wOC0yLjQ2LDEuNzQtMy45LDEuOEgwLjMgICAgIEwwLjA2LDQwLjk4eiIvPiYjeGE7CQk8L2c+JiN4YTsJCTxnIGlkPSJzaGFwZTI4OTEtMTAiPiYjeGE7CQkJPHRpdGxlIGlkPSJ0aXRsZTEyMzEyMSI+U2hlZXQuMjg5MTwvdGl0bGU+JiN4YTsJCQk8cGF0aCBpZD0icGF0aDEyMzEyMyIgaW5rc2NhcGU6Y29ubmVjdG9yLWN1cnZhdHVyZT0iMCIgc3R5bGU9ImZpbGw6IzU1NkE4QTsiIGQ9Ik0xMC41LDQwLjk4aC0wLjM2ICAgICBjLTEuMi0wLjA2LTIuMjgtMC41NC0zLjEyLTEuMzJDNi4zLDM4Ljg4LDYsMzcuNTYsNiwzNS4yOHYtNy4yYzAtMS44LTAuNTQtMy40OC0xLjU2LTQuOTJjLTAuNTQtMC45LTEuMzgtMS41Ni0yLjQtMS45MiAgICAgQzQuNjgsMjAuMzQsNiwxOC4xMiw2LDE0LjY0VjcuMjZDNiw0LjkyLDYuMywzLjYsNy4wOCwyLjg4QzcuOTIsMi4wNCw5LDEuNTYsMTAuMiwxLjVoMC4zNkwxMC40NCwwaC0wLjM2bDAsMCAgICAgQzguNTIsMC4wNiw3LjA4LDAuNzIsNiwxLjhDNC45OCwyLjg4LDQuNSw0LjUsNC41LDcuMjZ2Ny4zMmMwLDMuMTgtMS4yNiw0Ljk4LTMuOSw1LjQ2TDAsMjAuMTZ2Mi4xNmwwLjYsMC4xMmwwLDAgICAgIGMxLjAyLDAuMDYsMS45MiwwLjYsMi41MiwxLjVjMC44NCwxLjIsMS4zMiwyLjU4LDEuMzgsNC4wOHY3LjJjMCwyLjc2LDAuNDIsNC4zOCwxLjUsNS40NmMxLjAyLDEuMDgsMi40NiwxLjc0LDMuOTYsMS44aDAuMzYgICAgIEwxMC41LDQwLjk4eiIvPiYjeGE7CQk8L2c+JiN4YTsJPC9nPiYjeGE7PC9nPiYjeGE7PC9zdmc+;" vertex="1" parent="1">
          <mxGeometry x="802.0699999999999" y="570" width="21.43" height="20" as="geometry" />
        </mxCell>
        <mxCell id="ygO9R2tAyCTKiadrEur1-23" style="edgeStyle=orthogonalEdgeStyle;rounded=0;orthogonalLoop=1;jettySize=auto;html=1;entryX=0;entryY=0.5;entryDx=0;entryDy=0;" edge="1" parent="1" source="ygO9R2tAyCTKiadrEur1-22" target="ygO9R2tAyCTKiadrEur1-24">
          <mxGeometry relative="1" as="geometry" />
        </mxCell>
        <mxCell id="ygO9R2tAyCTKiadrEur1-22" value="User" style="shape=image;verticalLabelPosition=bottom;labelBackgroundColor=#ffffff;verticalAlign=top;aspect=fixed;imageAspect=0;image=data:image/svg+xml,PHN2ZyB4bWxuczpjYz0iaHR0cDovL2NyZWF0aXZlY29tbW9ucy5vcmcvbnMjIiB4bWxuczpkYz0iaHR0cDovL3B1cmwub3JnL2RjL2VsZW1lbnRzLzEuMS8iIHhtbG5zOmlua3NjYXBlPSJodHRwOi8vd3d3Lmlua3NjYXBlLm9yZy9uYW1lc3BhY2VzL2lua3NjYXBlIiB4bWxuczpyZGY9Imh0dHA6Ly93d3cudzMub3JnLzE5OTkvMDIvMjItcmRmLXN5bnRheC1ucyMiIHhtbG5zOnNvZGlwb2RpPSJodHRwOi8vc29kaXBvZGkuc291cmNlZm9yZ2UubmV0L0RURC9zb2RpcG9kaS0wLmR0ZCIgeG1sbnM6c3ZnPSJodHRwOi8vd3d3LnczLm9yZy8yMDAwL3N2ZyIgeG1sbnM9Imh0dHA6Ly93d3cudzMub3JnLzIwMDAvc3ZnIiB4bWxuczp4bGluaz0iaHR0cDovL3d3dy53My5vcmcvMTk5OS94bGluayIgdmVyc2lvbj0iMS4xIiBpZD0ic3ZnMTc1MTAyIiBpbmtzY2FwZTp2ZXJzaW9uPSIwLjkyLjMgKDI0MDU1NDYsIDIwMTgtMDMtMTEpIiBzb2RpcG9kaTpkb2NuYW1lPSJwY18xLnN2ZyIgeD0iMHB4IiB5PSIwcHgiIHZpZXdCb3g9IjAgMCA3MiA2OS40NiIgc3R5bGU9ImVuYWJsZS1iYWNrZ3JvdW5kOm5ldyAwIDAgNzIgNjkuNDY7IiB4bWw6c3BhY2U9InByZXNlcnZlIj4mI3hhOzxzb2RpcG9kaTpuYW1lZHZpZXcgYm9yZGVyY29sb3I9IiM2NjY2NjYiIGJvcmRlcm9wYWNpdHk9IjEiIGZpdC1tYXJnaW4tYm90dG9tPSIwIiBmaXQtbWFyZ2luLWxlZnQ9IjAiIGZpdC1tYXJnaW4tcmlnaHQ9IjAiIGZpdC1tYXJnaW4tdG9wPSIwIiBncmlkdG9sZXJhbmNlPSIxMCIgZ3VpZGV0b2xlcmFuY2U9IjEwIiBpZD0ibmFtZWR2aWV3MTc1MTA0IiBpbmtzY2FwZTpjdXJyZW50LWxheWVyPSJzdmcxNzUxMDIiIGlua3NjYXBlOmN4PSI0OCIgaW5rc2NhcGU6Y3k9IjQ2LjMwODUzMyIgaW5rc2NhcGU6cGFnZW9wYWNpdHk9IjAiIGlua3NjYXBlOnBhZ2VzaGFkb3c9IjIiIGlua3NjYXBlOndpbmRvdy1oZWlnaHQ9IjEwMTciIGlua3NjYXBlOndpbmRvdy1tYXhpbWl6ZWQ9IjEiIGlua3NjYXBlOndpbmRvdy13aWR0aD0iMTkyMCIgaW5rc2NhcGU6d2luZG93LXg9Ii04IiBpbmtzY2FwZTp3aW5kb3cteT0iLTgiIGlua3NjYXBlOnpvb209IjkuMzYxODczOCIgb2JqZWN0dG9sZXJhbmNlPSIxMCIgcGFnZWNvbG9yPSIjZmZmZmZmIiBzaG93Z3JpZD0iZmFsc2UiPiYjeGE7CTwvc29kaXBvZGk6bmFtZWR2aWV3PiYjeGE7PGcgaWQ9ImcxNzUxMDAiPiYjeGE7CTx0aXRsZSBpZD0idGl0bGUxNzUwOTMiPlBhZ2UtMTwvdGl0bGU+JiN4YTsJPGcgaWQ9InNoYXBlOTEzNC0xIj4mI3hhOwkJPHRpdGxlIGlkPSJ0aXRsZTE3NTA5NSI+UEMgIzE8L3RpdGxlPiYjeGE7CQk8cGF0aCBpZD0icGF0aDE3NTA5NyIgaW5rc2NhcGU6Y29ubmVjdG9yLWN1cnZhdHVyZT0iMCIgc3R5bGU9ImZpbGw6IzNGNTc2NTsiIGQ9Ik05LjcsNTcuNTRoNTEuNDVMNzIsNjkuNDZIMEw5LjcsNTcuNTR6ICAgICBNMTYuNTEsNTIuNjdINTUuNXYxLjM0SDE2LjUxVjUyLjY3eiBNNS4yNyw0LjAydjM1LjRoMjIuOTJoMTUuMjNoMjMuNzZWNC4wMkg1LjI3eiBNMzYsMC45MmMtMC41NSwwLTAuOTksMC4zOS0wLjk5LDAuODggICAgYzAsMC40OCwwLjQ0LDAuODgsMC45OSwwLjg4YzAuNTUsMCwxLTAuNCwxLTAuODhDMzcsMS4zMSwzNi41NSwwLjkyLDM2LDAuOTJ6IE01LjIzLDBjNjEuMTUsMCw2MS4xNSwwLDYxLjE1LDAgICAgYzIuNDEsMCw0LjAyLDEuNzcsNC4wMiwzLjk5djM1LjM4YzAsMi4yMi0xLjYxLDQuNDItNC4wMiw0LjQyYy03LjY1LDAtMTQuMzQsMC0yMC4xOSwwaC0yLjc3djIuNjh2MS43N2g4Ljg3bDMuMjEsNC40M0gxNi41MSAgICBsMy4yMS00LjQzaDguNDd2LTEuNzd2LTIuNjhIMjUuMWMtMTkuODcsMC0xOS44NywwLTE5Ljg3LDBjLTIuMDEsMC0zLjYyLTIuMi0zLjYyLTQuNDJjMC0zNS4zOCwwLTM1LjM4LDAtMzUuMzggICAgQzEuNjEsMS43NywzLjIyLDAsNS4yMywweiIvPiYjeGE7CTwvZz4mI3hhOzwvZz4mI3hhOzwvc3ZnPg==;imageBackground=default;" vertex="1" parent="1">
          <mxGeometry x="422.5" y="380" width="83.48" height="80" as="geometry" />
        </mxCell>
        <mxCell id="ygO9R2tAyCTKiadrEur1-24" value="&lt;b&gt;&lt;font style=&quot;font-size: 18px;&quot;&gt;Audit Trail Page UI&lt;/font&gt;&lt;/b&gt;" style="whiteSpace=wrap;html=1;verticalAlign=top;spacingLeft=20;align=center;" vertex="1" parent="1">
          <mxGeometry x="742.5" y="400" width="210" height="40" as="geometry" />
        </mxCell>
        <mxCell id="ygO9R2tAyCTKiadrEur1-26" value="" style="shape=image;verticalLabelPosition=bottom;labelBackgroundColor=#ffffff;verticalAlign=top;aspect=fixed;imageAspect=0;image=data:image/svg+xml,PHN2ZyB4bWxuczpjYz0iaHR0cDovL2NyZWF0aXZlY29tbW9ucy5vcmcvbnMjIiB4bWxuczpkYz0iaHR0cDovL3B1cmwub3JnL2RjL2VsZW1lbnRzLzEuMS8iIHhtbG5zOmlua3NjYXBlPSJodHRwOi8vd3d3Lmlua3NjYXBlLm9yZy9uYW1lc3BhY2VzL2lua3NjYXBlIiB4bWxuczpyZGY9Imh0dHA6Ly93d3cudzMub3JnLzE5OTkvMDIvMjItcmRmLXN5bnRheC1ucyMiIHhtbG5zOnNvZGlwb2RpPSJodHRwOi8vc29kaXBvZGkuc291cmNlZm9yZ2UubmV0L0RURC9zb2RpcG9kaS0wLmR0ZCIgeG1sbnM6c3ZnPSJodHRwOi8vd3d3LnczLm9yZy8yMDAwL3N2ZyIgeG1sbnM9Imh0dHA6Ly93d3cudzMub3JnLzIwMDAvc3ZnIiB4bWxuczp4bGluaz0iaHR0cDovL3d3dy53My5vcmcvMTk5OS94bGluayIgdmVyc2lvbj0iMS4xIiBpZD0ic3ZnMTIzMTI5IiBpbmtzY2FwZTp2ZXJzaW9uPSIwLjkyLjMgKDI0MDU1NDYsIDIwMTgtMDMtMTEpIiBzb2RpcG9kaTpkb2NuYW1lPSJjb2RlX3NhbXBsZXNfMS5zdmciIHg9IjBweCIgeT0iMHB4IiB2aWV3Qm94PSIwIDAgNDUgNDIuNDgiIHN0eWxlPSJlbmFibGUtYmFja2dyb3VuZDpuZXcgMCAwIDQ1IDQyLjQ4OyIgeG1sOnNwYWNlPSJwcmVzZXJ2ZSI+JiN4YTs8c29kaXBvZGk6bmFtZWR2aWV3IGJvcmRlcmNvbG9yPSIjNjY2NjY2IiBib3JkZXJvcGFjaXR5PSIxIiBmaXQtbWFyZ2luLWJvdHRvbT0iMCIgZml0LW1hcmdpbi1sZWZ0PSIwIiBmaXQtbWFyZ2luLXJpZ2h0PSIwIiBmaXQtbWFyZ2luLXRvcD0iMCIgZ3JpZHRvbGVyYW5jZT0iMTAiIGd1aWRldG9sZXJhbmNlPSIxMCIgaWQ9Im5hbWVkdmlldzEyMzEzMSIgaW5rc2NhcGU6Y3VycmVudC1sYXllcj0ic3ZnMTIzMTI5IiBpbmtzY2FwZTpjeD0iMjkuOTk5MTg1IiBpbmtzY2FwZTpjeT0iMjguMzE5Nzg2IiBpbmtzY2FwZTpwYWdlb3BhY2l0eT0iMCIgaW5rc2NhcGU6cGFnZXNoYWRvdz0iMiIgaW5rc2NhcGU6d2luZG93LWhlaWdodD0iMTAxNyIgaW5rc2NhcGU6d2luZG93LW1heGltaXplZD0iMSIgaW5rc2NhcGU6d2luZG93LXdpZHRoPSIxOTIwIiBpbmtzY2FwZTp3aW5kb3cteD0iLTgiIGlua3NjYXBlOndpbmRvdy15PSItOCIgaW5rc2NhcGU6em9vbT0iMTUuMzA3MDc0IiBvYmplY3R0b2xlcmFuY2U9IjEwIiBwYWdlY29sb3I9IiNmZmZmZmYiIHNob3dncmlkPSJmYWxzZSI+JiN4YTsJPC9zb2RpcG9kaTpuYW1lZHZpZXc+JiN4YTs8ZyBpZD0iZzEyMzEyNyIgdHJhbnNmb3JtPSJ0cmFuc2xhdGUoMCwtNC4xNTg4Mzg5ZS01KSI+JiN4YTsJPHRpdGxlIGlkPSJ0aXRsZTEyMzA5NyI+UGFnZS0xPC90aXRsZT4mI3hhOwk8ZyBpZD0iZ3JvdXAyODg2LTEiPiYjeGE7CQk8dGl0bGUgaWQ9InRpdGxlMTIzMDk5Ij5Db2RlIFNhbXBsZXMgIzE8L3RpdGxlPiYjeGE7CQk8ZyBpZD0ic2hhcGUyODg3LTIiIHRyYW5zZm9ybT0idHJhbnNsYXRlKDE0LjI3OTYsLTI4LjUwMDIpIj4mI3hhOwkJCTx0aXRsZSBpZD0idGl0bGUxMjMxMDEiPlNoZWV0LjI4ODc8L3RpdGxlPiYjeGE7CQkJPHBhdGggaWQ9InBhdGgxMjMxMDMiIGlua3NjYXBlOmNvbm5lY3Rvci1jdXJ2YXR1cmU9IjAiIHN0eWxlPSJmaWxsOiMyQkM3RjQ7IiBkPSJNMCwzNC45OGgxNi41djcuNUgwVjM0Ljk4eiIvPiYjeGE7CQk8L2c+JiN4YTsJCTxnIGlkPSJzaGFwZTI4ODgtNCIgdHJhbnNmb3JtPSJ0cmFuc2xhdGUoMTQuMjc5NiwtMTguMDAwMSkiPiYjeGE7CQkJPHRpdGxlIGlkPSJ0aXRsZTEyMzEwNiI+U2hlZXQuMjg4ODwvdGl0bGU+JiN4YTsJCQk8cGF0aCBpZD0icGF0aDEyMzEwOCIgaW5rc2NhcGU6Y29ubmVjdG9yLWN1cnZhdHVyZT0iMCIgc3R5bGU9ImZpbGw6IzJCQzdGNDsiIGQ9Ik0wLDM0Ljk4aDE2LjV2Ny41SDBWMzQuOTh6Ii8+JiN4YTsJCTwvZz4mI3hhOwkJPGcgaWQ9InNoYXBlMjg4OS02IiB0cmFuc2Zvcm09InRyYW5zbGF0ZSgxNC4yNzk2LC03LjUwMDA2KSI+JiN4YTsJCQk8dGl0bGUgaWQ9InRpdGxlMTIzMTExIj5TaGVldC4yODg5PC90aXRsZT4mI3hhOwkJCTxwYXRoIGlkPSJwYXRoMTIzMTEzIiBpbmtzY2FwZTpjb25uZWN0b3ItY3VydmF0dXJlPSIwIiBzdHlsZT0iZmlsbDojMkJDN0Y0OyIgZD0iTTAsMzQuOThoMTYuNXY3LjVIMFYzNC45OHoiLz4mI3hhOwkJPC9nPiYjeGE7CQk8ZyBpZD0ic2hhcGUyODkwLTgiIHRyYW5zZm9ybT0idHJhbnNsYXRlKDM0LjQzOTEpIj4mI3hhOwkJCTx0aXRsZSBpZD0idGl0bGUxMjMxMTYiPlNoZWV0LjI4OTA8L3RpdGxlPiYjeGE7CQkJPHBhdGggaWQ9InBhdGgxMjMxMTgiIGlua3NjYXBlOmNvbm5lY3Rvci1jdXJ2YXR1cmU9IjAiIHN0eWxlPSJmaWxsOiM1NTZBOEE7IiBkPSJNMC4wNiw0MC45OGgwLjQyICAgICBjMS4xNC0wLjA2LDIuMjItMC41NCwzLjA2LTEuMzJjMC43Mi0wLjc4LDEuMDItMi4xLDEuMDItNC4zOHYtNy4yYzAtMS44LDAuNTQtMy40OCwxLjU2LTQuOThjMC41NC0wLjg0LDEuMzgtMS41LDIuNC0xLjg2ICAgICBjLTIuNjQtMC45LTMuOTYtMy4xMi0zLjk2LTYuNlY3LjI2YzAtMi4zNC0wLjMtMy42Ni0xLjA4LTQuNDRDMi42NCwyLjA0LDEuNTYsMS41NiwwLjM2LDEuNUgwTDAuMTIsMGgwLjM2bDAsMCAgICAgYzEuNTYsMC4wNiwzLDAuNzIsNC4wOCwxLjhjMS4wMiwxLjA4LDEuNSwyLjcsMS41LDUuNDZ2Ny4zMmMwLDMuMTgsMS4yNiw0Ljk4LDMuOSw1LjQ2bDAuNiwwLjEydjIuMTZsLTAuNiwwLjEybDAsMCAgICAgYy0xLjAyLDAuMDYtMS45MiwwLjYtMi41MiwxLjVjLTAuODQsMS4yLTEuMzIsMi41OC0xLjM4LDQuMDh2Ny4yYzAsMi43Ni0wLjQyLDQuMzgtMS41LDUuNDZjLTEuMDIsMS4wOC0yLjQ2LDEuNzQtMy45LDEuOEgwLjMgICAgIEwwLjA2LDQwLjk4eiIvPiYjeGE7CQk8L2c+JiN4YTsJCTxnIGlkPSJzaGFwZTI4OTEtMTAiPiYjeGE7CQkJPHRpdGxlIGlkPSJ0aXRsZTEyMzEyMSI+U2hlZXQuMjg5MTwvdGl0bGU+JiN4YTsJCQk8cGF0aCBpZD0icGF0aDEyMzEyMyIgaW5rc2NhcGU6Y29ubmVjdG9yLWN1cnZhdHVyZT0iMCIgc3R5bGU9ImZpbGw6IzU1NkE4QTsiIGQ9Ik0xMC41LDQwLjk4aC0wLjM2ICAgICBjLTEuMi0wLjA2LTIuMjgtMC41NC0zLjEyLTEuMzJDNi4zLDM4Ljg4LDYsMzcuNTYsNiwzNS4yOHYtNy4yYzAtMS44LTAuNTQtMy40OC0xLjU2LTQuOTJjLTAuNTQtMC45LTEuMzgtMS41Ni0yLjQtMS45MiAgICAgQzQuNjgsMjAuMzQsNiwxOC4xMiw2LDE0LjY0VjcuMjZDNiw0LjkyLDYuMywzLjYsNy4wOCwyLjg4QzcuOTIsMi4wNCw5LDEuNTYsMTAuMiwxLjVoMC4zNkwxMC40NCwwaC0wLjM2bDAsMCAgICAgQzguNTIsMC4wNiw3LjA4LDAuNzIsNiwxLjhDNC45OCwyLjg4LDQuNSw0LjUsNC41LDcuMjZ2Ny4zMmMwLDMuMTgtMS4yNiw0Ljk4LTMuOSw1LjQ2TDAsMjAuMTZ2Mi4xNmwwLjYsMC4xMmwwLDAgICAgIGMxLjAyLDAuMDYsMS45MiwwLjYsMi41MiwxLjVjMC44NCwxLjIsMS4zMiwyLjU4LDEuMzgsNC4wOHY3LjJjMCwyLjc2LDAuNDIsNC4zOCwxLjUsNS40NmMxLjAyLDEuMDgsMi40NiwxLjc0LDMuOTYsMS44aDAuMzYgICAgIEwxMC41LDQwLjk4eiIvPiYjeGE7CQk8L2c+JiN4YTsJPC9nPiYjeGE7PC9nPiYjeGE7PC9zdmc+;" vertex="1" parent="1">
          <mxGeometry x="942.5" y="430" width="21.43" height="20" as="geometry" />
        </mxCell>
        <mxCell id="ygO9R2tAyCTKiadrEur1-27" value="" style="shape=image;verticalLabelPosition=bottom;labelBackgroundColor=#ffffff;verticalAlign=top;aspect=fixed;imageAspect=0;image=data:image/svg+xml,PHN2ZyB4bWxuczpjYz0iaHR0cDovL2NyZWF0aXZlY29tbW9ucy5vcmcvbnMjIiB4bWxuczpkYz0iaHR0cDovL3B1cmwub3JnL2RjL2VsZW1lbnRzLzEuMS8iIHhtbG5zOmlua3NjYXBlPSJodHRwOi8vd3d3Lmlua3NjYXBlLm9yZy9uYW1lc3BhY2VzL2lua3NjYXBlIiB4bWxuczpyZGY9Imh0dHA6Ly93d3cudzMub3JnLzE5OTkvMDIvMjItcmRmLXN5bnRheC1ucyMiIHhtbG5zOnNvZGlwb2RpPSJodHRwOi8vc29kaXBvZGkuc291cmNlZm9yZ2UubmV0L0RURC9zb2RpcG9kaS0wLmR0ZCIgeG1sbnM6c3ZnPSJodHRwOi8vd3d3LnczLm9yZy8yMDAwL3N2ZyIgeG1sbnM9Imh0dHA6Ly93d3cudzMub3JnLzIwMDAvc3ZnIiB4bWxuczp4bGluaz0iaHR0cDovL3d3dy53My5vcmcvMTk5OS94bGluayIgdmVyc2lvbj0iMS4xIiBpZD0ic3ZnMTIzMTI5IiBpbmtzY2FwZTp2ZXJzaW9uPSIwLjkyLjMgKDI0MDU1NDYsIDIwMTgtMDMtMTEpIiBzb2RpcG9kaTpkb2NuYW1lPSJjb2RlX3NhbXBsZXNfMS5zdmciIHg9IjBweCIgeT0iMHB4IiB2aWV3Qm94PSIwIDAgNDUgNDIuNDgiIHN0eWxlPSJlbmFibGUtYmFja2dyb3VuZDpuZXcgMCAwIDQ1IDQyLjQ4OyIgeG1sOnNwYWNlPSJwcmVzZXJ2ZSI+JiN4YTs8c29kaXBvZGk6bmFtZWR2aWV3IGJvcmRlcmNvbG9yPSIjNjY2NjY2IiBib3JkZXJvcGFjaXR5PSIxIiBmaXQtbWFyZ2luLWJvdHRvbT0iMCIgZml0LW1hcmdpbi1sZWZ0PSIwIiBmaXQtbWFyZ2luLXJpZ2h0PSIwIiBmaXQtbWFyZ2luLXRvcD0iMCIgZ3JpZHRvbGVyYW5jZT0iMTAiIGd1aWRldG9sZXJhbmNlPSIxMCIgaWQ9Im5hbWVkdmlldzEyMzEzMSIgaW5rc2NhcGU6Y3VycmVudC1sYXllcj0ic3ZnMTIzMTI5IiBpbmtzY2FwZTpjeD0iMjkuOTk5MTg1IiBpbmtzY2FwZTpjeT0iMjguMzE5Nzg2IiBpbmtzY2FwZTpwYWdlb3BhY2l0eT0iMCIgaW5rc2NhcGU6cGFnZXNoYWRvdz0iMiIgaW5rc2NhcGU6d2luZG93LWhlaWdodD0iMTAxNyIgaW5rc2NhcGU6d2luZG93LW1heGltaXplZD0iMSIgaW5rc2NhcGU6d2luZG93LXdpZHRoPSIxOTIwIiBpbmtzY2FwZTp3aW5kb3cteD0iLTgiIGlua3NjYXBlOndpbmRvdy15PSItOCIgaW5rc2NhcGU6em9vbT0iMTUuMzA3MDc0IiBvYmplY3R0b2xlcmFuY2U9IjEwIiBwYWdlY29sb3I9IiNmZmZmZmYiIHNob3dncmlkPSJmYWxzZSI+JiN4YTsJPC9zb2RpcG9kaTpuYW1lZHZpZXc+JiN4YTs8ZyBpZD0iZzEyMzEyNyIgdHJhbnNmb3JtPSJ0cmFuc2xhdGUoMCwtNC4xNTg4Mzg5ZS01KSI+JiN4YTsJPHRpdGxlIGlkPSJ0aXRsZTEyMzA5NyI+UGFnZS0xPC90aXRsZT4mI3hhOwk8ZyBpZD0iZ3JvdXAyODg2LTEiPiYjeGE7CQk8dGl0bGUgaWQ9InRpdGxlMTIzMDk5Ij5Db2RlIFNhbXBsZXMgIzE8L3RpdGxlPiYjeGE7CQk8ZyBpZD0ic2hhcGUyODg3LTIiIHRyYW5zZm9ybT0idHJhbnNsYXRlKDE0LjI3OTYsLTI4LjUwMDIpIj4mI3hhOwkJCTx0aXRsZSBpZD0idGl0bGUxMjMxMDEiPlNoZWV0LjI4ODc8L3RpdGxlPiYjeGE7CQkJPHBhdGggaWQ9InBhdGgxMjMxMDMiIGlua3NjYXBlOmNvbm5lY3Rvci1jdXJ2YXR1cmU9IjAiIHN0eWxlPSJmaWxsOiMyQkM3RjQ7IiBkPSJNMCwzNC45OGgxNi41djcuNUgwVjM0Ljk4eiIvPiYjeGE7CQk8L2c+JiN4YTsJCTxnIGlkPSJzaGFwZTI4ODgtNCIgdHJhbnNmb3JtPSJ0cmFuc2xhdGUoMTQuMjc5NiwtMTguMDAwMSkiPiYjeGE7CQkJPHRpdGxlIGlkPSJ0aXRsZTEyMzEwNiI+U2hlZXQuMjg4ODwvdGl0bGU+JiN4YTsJCQk8cGF0aCBpZD0icGF0aDEyMzEwOCIgaW5rc2NhcGU6Y29ubmVjdG9yLWN1cnZhdHVyZT0iMCIgc3R5bGU9ImZpbGw6IzJCQzdGNDsiIGQ9Ik0wLDM0Ljk4aDE2LjV2Ny41SDBWMzQuOTh6Ii8+JiN4YTsJCTwvZz4mI3hhOwkJPGcgaWQ9InNoYXBlMjg4OS02IiB0cmFuc2Zvcm09InRyYW5zbGF0ZSgxNC4yNzk2LC03LjUwMDA2KSI+JiN4YTsJCQk8dGl0bGUgaWQ9InRpdGxlMTIzMTExIj5TaGVldC4yODg5PC90aXRsZT4mI3hhOwkJCTxwYXRoIGlkPSJwYXRoMTIzMTEzIiBpbmtzY2FwZTpjb25uZWN0b3ItY3VydmF0dXJlPSIwIiBzdHlsZT0iZmlsbDojMkJDN0Y0OyIgZD0iTTAsMzQuOThoMTYuNXY3LjVIMFYzNC45OHoiLz4mI3hhOwkJPC9nPiYjeGE7CQk8ZyBpZD0ic2hhcGUyODkwLTgiIHRyYW5zZm9ybT0idHJhbnNsYXRlKDM0LjQzOTEpIj4mI3hhOwkJCTx0aXRsZSBpZD0idGl0bGUxMjMxMTYiPlNoZWV0LjI4OTA8L3RpdGxlPiYjeGE7CQkJPHBhdGggaWQ9InBhdGgxMjMxMTgiIGlua3NjYXBlOmNvbm5lY3Rvci1jdXJ2YXR1cmU9IjAiIHN0eWxlPSJmaWxsOiM1NTZBOEE7IiBkPSJNMC4wNiw0MC45OGgwLjQyICAgICBjMS4xNC0wLjA2LDIuMjItMC41NCwzLjA2LTEuMzJjMC43Mi0wLjc4LDEuMDItMi4xLDEuMDItNC4zOHYtNy4yYzAtMS44LDAuNTQtMy40OCwxLjU2LTQuOThjMC41NC0wLjg0LDEuMzgtMS41LDIuNC0xLjg2ICAgICBjLTIuNjQtMC45LTMuOTYtMy4xMi0zLjk2LTYuNlY3LjI2YzAtMi4zNC0wLjMtMy42Ni0xLjA4LTQuNDRDMi42NCwyLjA0LDEuNTYsMS41NiwwLjM2LDEuNUgwTDAuMTIsMGgwLjM2bDAsMCAgICAgYzEuNTYsMC4wNiwzLDAuNzIsNC4wOCwxLjhjMS4wMiwxLjA4LDEuNSwyLjcsMS41LDUuNDZ2Ny4zMmMwLDMuMTgsMS4yNiw0Ljk4LDMuOSw1LjQ2bDAuNiwwLjEydjIuMTZsLTAuNiwwLjEybDAsMCAgICAgYy0xLjAyLDAuMDYtMS45MiwwLjYtMi41MiwxLjVjLTAuODQsMS4yLTEuMzIsMi41OC0xLjM4LDQuMDh2Ny4yYzAsMi43Ni0wLjQyLDQuMzgtMS41LDUuNDZjLTEuMDIsMS4wOC0yLjQ2LDEuNzQtMy45LDEuOEgwLjMgICAgIEwwLjA2LDQwLjk4eiIvPiYjeGE7CQk8L2c+JiN4YTsJCTxnIGlkPSJzaGFwZTI4OTEtMTAiPiYjeGE7CQkJPHRpdGxlIGlkPSJ0aXRsZTEyMzEyMSI+U2hlZXQuMjg5MTwvdGl0bGU+JiN4YTsJCQk8cGF0aCBpZD0icGF0aDEyMzEyMyIgaW5rc2NhcGU6Y29ubmVjdG9yLWN1cnZhdHVyZT0iMCIgc3R5bGU9ImZpbGw6IzU1NkE4QTsiIGQ9Ik0xMC41LDQwLjk4aC0wLjM2ICAgICBjLTEuMi0wLjA2LTIuMjgtMC41NC0zLjEyLTEuMzJDNi4zLDM4Ljg4LDYsMzcuNTYsNiwzNS4yOHYtNy4yYzAtMS44LTAuNTQtMy40OC0xLjU2LTQuOTJjLTAuNTQtMC45LTEuMzgtMS41Ni0yLjQtMS45MiAgICAgQzQuNjgsMjAuMzQsNiwxOC4xMiw2LDE0LjY0VjcuMjZDNiw0LjkyLDYuMywzLjYsNy4wOCwyLjg4QzcuOTIsMi4wNCw5LDEuNTYsMTAuMiwxLjVoMC4zNkwxMC40NCwwaC0wLjM2bDAsMCAgICAgQzguNTIsMC4wNiw3LjA4LDAuNzIsNiwxLjhDNC45OCwyLjg4LDQuNSw0LjUsNC41LDcuMjZ2Ny4zMmMwLDMuMTgtMS4yNiw0Ljk4LTMuOSw1LjQ2TDAsMjAuMTZ2Mi4xNmwwLjYsMC4xMmwwLDAgICAgIGMxLjAyLDAuMDYsMS45MiwwLjYsMi41MiwxLjVjMC44NCwxLjIsMS4zMiwyLjU4LDEuMzgsNC4wOHY3LjJjMCwyLjc2LDAuNDIsNC4zOCwxLjUsNS40NmMxLjAyLDEuMDgsMi40NiwxLjc0LDMuOTYsMS44aDAuMzYgICAgIEwxMC41LDQwLjk4eiIvPiYjeGE7CQk8L2c+JiN4YTsJPC9nPiYjeGE7PC9nPiYjeGE7PC9zdmc+;" vertex="1" parent="1">
          <mxGeometry x="524.5" y="790" width="21.43" height="20" as="geometry" />
        </mxCell>
      </root>
    </mxGraphModel>
  </diagram>
</mxfile>
